<?xml version="1.0" encoding="UTF-8" standalone="no"?>
<svg
   xmlns:dc="http://purl.org/dc/elements/1.1/"
   xmlns:cc="http://creativecommons.org/ns#"
   xmlns:rdf="http://www.w3.org/1999/02/22-rdf-syntax-ns#"
   xmlns:svg="http://www.w3.org/2000/svg"
   xmlns="http://www.w3.org/2000/svg"
   viewBox="0 0 351.23999 76.973335"
   height="76.973335"
   width="351.23999"
   xml:space="preserve"
   id="svg2"
   version="1.1"><metadata
     id="metadata8"><rdf:RDF><cc:Work
         rdf:about=""><dc:format>image/svg+xml</dc:format><dc:type
           rdf:resource="http://purl.org/dc/dcmitype/StillImage" /></cc:Work></rdf:RDF></metadata><defs
     id="defs6" /><g
     transform="matrix(1.3333333,0,0,1.3333333,0,1.5910001e-6)"
     id="g10"><g
       id="g12"><path
         id="path14"
         style="fill:#8bb4e1;fill-opacity:1;fill-rule:nonzero;stroke:none"
         d="m 11.234,43.016 h 7.692 V 0.496 H 11.234 C 5.305,0.496 0.5,5.301 0.5,11.23 v 21.051 c 0,5.93 4.805,10.735 10.734,10.735 z" /><path
         id="path16"
         style="fill:#08274a;fill-opacity:1;fill-rule:nonzero;stroke:none"
         d="M 23.176,19.629 H 43.02 V 11.23 C 43.02,5.301 38.215,0.496 32.285,0.496 h -9.109 z" /><path
         id="path18"
         style="fill:#32659c;fill-opacity:1;fill-rule:nonzero;stroke:none"
         d="M 23.176,23.883 H 43.02 V 43.016 H 23.176 Z" /><path
         id="path20"
         style="fill:#000000;fill-opacity:1;fill-rule:nonzero;stroke:none"
         d="M 91.504,13.516 H 87.473 L 80.02,33.25 78.863,37.016 77.926,33.25 70.879,13.516 H 66.27 l 3,7.937 -4.485,11.797 -1.172,3.766 -0.937,-3.766 -7.031,-19.734 h -5.297 l 2.609,4.937 8.922,24.563 2.5,0.578 5.828,-15.141 0.766,-2.828 0.812,2.781 5.328,14.61 2.782,0.578 z" /><path
         id="path22"
         style="fill:#000000;fill-opacity:1;fill-rule:nonzero;stroke:none"
         d="m 102.262,20.281 c -6.86,0 -9.907,5.797 -9.907,12.11 0,5.562 3.36,11.203 9.235,11.203 5.562,0 8.75,-3.094 8.75,-3.094 l -0.625,-3.406 c 0,0 -3.235,3.047 -7.047,3.047 -4.344,0 -6.234,-4.125 -6.313,-8.157 h 12.5 l 1.032,-1.156 c -0.094,-2.781 -0.625,-10.547 -7.625,-10.547 z m -0.532,2.922 c 3.094,0 3.938,3.578 4.079,5.922 h -9.235 c 0.625,-3.234 2.11,-5.922 5.156,-5.922 z" /><path
         id="path24"
         style="fill:#000000;fill-opacity:1;fill-rule:nonzero;stroke:none"
         d="m 120.16,9.172 -4.359,0.484 0.594,4.125 v 29.235 h 4.203 l -0.438,-3.36 z" /><path
         id="path26"
         style="fill:#000000;fill-opacity:1;fill-rule:nonzero;stroke:none"
         d="m 132.445,9.172 -4.359,0.484 0.594,4.125 v 29.235 h 4.203 l -0.438,-3.36 z" /><path
         id="path28"
         style="fill:#000000;fill-opacity:1;fill-rule:nonzero;stroke:none"
         d="m 138.09,30.281 v 3.328 h 10.172 l 0.906,-3.328 z" /><path
         id="path30"
         style="fill:#000000;fill-opacity:1;fill-rule:nonzero;stroke:none"
         d="m 146.062,16.922 h 9.422 v 26.094 h 4.485 l -0.453,-3.36 V 16.922 h 9.687 v -3.406 h -23.141 z" /><path
         id="path32"
         style="fill:#000000;fill-opacity:1;fill-rule:nonzero;stroke:none"
         d="m 188.035,20.375 -3.953,0.578 -5.641,14.359 -0.953,3.266 -0.578,-3.266 -5.25,-14.937 -4.39,0.578 1.968,3.735 6.157,18.156 -0.954,2.453 c -1.25,3.281 -3.453,4.75 -5.781,4.75 -0.765,0 -1.515,-0.172 -2.281,-0.438 l 0.625,3.813 c 0.812,0.312 1.562,0.484 2.328,0.484 3.188,0 6.234,-2.468 8.109,-7.125 z" /><path
         id="path34"
         style="fill:#000000;fill-opacity:1;fill-rule:nonzero;stroke:none"
         d="m 192.566,53.781 h 4.204 l -0.438,-3.375 v -7.078 c 1.25,0.141 2.5,0.266 3.484,0.266 6.454,0 10.938,-5.641 10.938,-12.094 0,-7.172 -3.766,-11.125 -8.063,-11.125 -4.218,0 -6.359,2.734 -6.359,2.734 v -2.64 l -4.359,0.484 0.593,4.125 z m 3.766,-13.406 V 26.469 c 0,0 2.063,-2.907 5.063,-2.907 2.953,0 5.203,3.266 5.203,8.329 0,4.718 -2.735,8.797 -6.063,8.797 -1.75,0 -4.297,-0.313 -4.203,-0.313 z" /><path
         id="path36"
         style="fill:#000000;fill-opacity:1;fill-rule:nonzero;stroke:none"
         d="m 225.277,20.281 c -6.859,0 -9.906,5.797 -9.906,12.11 0,5.562 3.359,11.203 9.234,11.203 5.563,0 8.75,-3.094 8.75,-3.094 l -0.625,-3.406 c 0,0 -3.234,3.047 -7.046,3.047 -4.344,0 -6.235,-4.125 -6.313,-8.157 h 12.5 l 1.031,-1.156 c -0.093,-2.781 -0.625,-10.547 -7.625,-10.547 z m -0.531,2.922 c 3.094,0 3.938,3.578 4.078,5.922 h -9.234 c 0.625,-3.234 2.109,-5.922 5.156,-5.922 z" /><path
         id="path38"
         style="fill:#000000;fill-opacity:1;fill-rule:nonzero;stroke:none"
         d="m 255.539,9.172 -4.344,0.484 0.578,4.125 v 6.86 c -1.25,-0.125 -2.5,-0.266 -3.484,-0.266 -6.469,0 -10.937,5.656 -10.937,12.109 0,7.172 3.765,11.11 8.062,11.11 2.156,0 4.531,-1.078 6.672,-3.266 0.234,1.797 1.312,3.266 1.312,3.266 l 4.172,-0.578 c 0,0 -2.031,-2.375 -2.031,-5.063 z m -8.687,31.375 c -2.922,0 -5.344,-3.313 -5.344,-8.469 0,-4.703 2.734,-8.781 6.062,-8.781 1.75,0 4.297,0.312 4.203,0.312 v 13.938 c -1.515,1.969 -3.359,3 -4.921,3 z" /></g></g></svg>