<?xml version="1.0" encoding="UTF-8"?>
<svg width="536px" height="115px" viewBox="0 0 536 115" version="1.1" xmlns="http://www.w3.org/2000/svg" xmlns:xlink="http://www.w3.org/1999/xlink">
    <!-- Generator: Sketch 63.1 (92452) - https://sketch.com -->
    <title>Platonic Logo</title>
    <desc>Created with Sketch.</desc>
    <defs>
        <linearGradient x1="-62.3161765%" y1="60.9770046%" x2="110.959997%" y2="48.2984863%" id="linearGradient-1">
            <stop stop-color="#49D395" offset="0%"></stop>
            <stop stop-color="#1F59F4" offset="100%"></stop>
        </linearGradient>
        <linearGradient x1="-4.18792281%" y1="-39.3315397%" x2="92.8050299%" y2="118.27918%" id="linearGradient-2">
            <stop stop-color="#49D395" offset="0%"></stop>
            <stop stop-color="#1F59F4" offset="100%"></stop>
        </linearGradient>
        <linearGradient x1="68.1621157%" y1="0%" x2="50%" y2="100%" id="linearGradient-3">
            <stop stop-color="#4292FA" offset="0%"></stop>
            <stop stop-color="#1F59F4" offset="100%"></stop>
        </linearGradient>
        <linearGradient x1="29.0764379%" y1="165.231934%" x2="59.6537135%" y2="0%" id="linearGradient-4">
            <stop stop-color="#49D395" offset="0%"></stop>
            <stop stop-color="#1F59F4" offset="100%"></stop>
        </linearGradient>
        <linearGradient x1="13.8892126%" y1="-23.2093959%" x2="50%" y2="100%" id="linearGradient-5">
            <stop stop-color="#49D395" offset="0%"></stop>
            <stop stop-color="#1F59F4" offset="100%"></stop>
        </linearGradient>
        <linearGradient x1="93.5218301%" y1="0%" x2="4.24463247%" y2="91.6554831%" id="linearGradient-6">
            <stop stop-color="#49D395" offset="0%"></stop>
            <stop stop-color="#1F59F4" offset="100%"></stop>
        </linearGradient>
    </defs>
    <g id="Page-1" stroke="none" stroke-width="1" fill="none" fill-rule="evenodd">
        <g id="Basic-Branding-Overview" transform="translate(-99.000000, -52.000000)">
            <g id="Platonic-Logo" transform="translate(99.000000, 52.000000)">
                <g id="Platonic.Systems" transform="translate(157.000000, 38.000000)" fill-rule="nonzero">
                    <path d="M7.41575758,34.893913 L7.41575758,22.9565217 L11.6072727,22.9565217 C15.4763636,22.9565217 18.5010101,22.0918261 20.6812121,20.3624348 C22.8614141,18.6330435 23.9515152,16.0848696 23.9515152,12.717913 L23.9515152,12.717913 L23.9515152,12.5342609 C23.9515152,9.10608696 22.8690909,6.50434783 20.7042424,4.72904348 C18.5393939,2.95373913 15.430303,2.06608696 11.3769697,2.06608696 L11.3769697,2.06608696 L1.77276824e-13,2.06608696 L1.77276824e-13,34.893913 L7.41575758,34.893913 Z M11.1927273,17.7683478 L7.41575758,17.7683478 L7.41575758,7.7133913 L11.1927273,7.7133913 C14.9082828,7.7133913 16.7660606,9.33565217 16.7660606,12.5801739 L16.7660606,12.5801739 L16.7660606,12.7638261 C16.7660606,16.1001739 14.9082828,17.7683478 11.1927273,17.7683478 L11.1927273,17.7683478 Z M35.0521212,34.893913 L35.0521212,0 L28.4193939,0 L28.4193939,34.893913 L35.0521212,34.893913 Z M47.6266667,35.3989565 C50.8509091,35.3989565 53.2767677,34.2664348 54.9042424,32.0013913 L54.9042424,32.0013913 L54.9042424,34.893913 L61.3987879,34.893913 L61.3987879,19.2375652 C61.3987879,13.2994783 58.0363636,10.3304348 51.3115152,10.3304348 C48.210101,10.3304348 45.6767677,11.0191304 43.7115152,12.3965217 C41.7462626,13.773913 40.6715152,15.8246957 40.4872727,18.5488696 L40.4872727,18.5488696 L46.7975758,18.5488696 C47.1046465,16.2838261 48.4711111,15.1513043 50.8969697,15.1513043 C52.340202,15.1513043 53.3535354,15.5109565 53.9369697,16.2302609 C54.520404,16.9495652 54.8121212,18.0591304 54.8121212,19.5589565 L54.8121212,19.5589565 L54.8121212,20.5231304 L52.0945455,20.5231304 C43.7422222,20.5231304 39.5660606,23.0942609 39.5660606,28.2365217 C39.5660606,30.624 40.3183838,32.4146087 41.8230303,33.6083478 C43.3276768,34.802087 45.2622222,35.3989565 47.6266667,35.3989565 Z M49.6072727,30.7617391 C47.2735354,30.7617391 46.1066667,29.7975652 46.1066667,27.8692174 C46.1066667,26.6448696 46.6210101,25.7725217 47.649697,25.2521739 C48.6783838,24.7318261 50.2060606,24.4716522 52.2327273,24.4716522 L52.2327273,24.4716522 L54.8121212,24.4716522 L54.8121212,26.4918261 C54.8121212,27.808 54.3208081,28.8486957 53.3381818,29.613913 C52.3555556,30.3791304 51.1119192,30.7617391 49.6072727,30.7617391 Z M75.9078788,35.3530435 C77.3818182,35.3530435 78.7329293,35.1387826 79.9612121,34.7102609 L79.9612121,34.7102609 L79.9612121,29.568 C79.2242424,29.874087 78.379798,30.0271304 77.4278788,30.0271304 C75.6468687,30.0271304 74.7563636,29.0782609 74.7563636,27.1805217 L74.7563636,27.1805217 L74.7563636,15.6104348 L79.8230303,15.6104348 L79.8230303,10.8813913 L74.7563636,10.8813913 L74.7563636,5.69321739 L68.1236364,5.69321739 L68.1236364,10.8813913 L65.0375758,10.8813913 L65.0375758,15.6104348 L68.1236364,15.6104348 L68.1236364,27.7773913 C68.1236364,30.2566957 68.7838384,32.1391304 70.1042424,33.4246957 C71.4246465,34.7102609 73.3591919,35.3530435 75.9078788,35.3530435 Z M95.6678788,35.3989565 C99.3527273,35.3989565 102.392727,34.2664348 104.787879,32.0013913 C107.18303,29.7363478 108.380606,26.7366957 108.380606,23.0024348 L108.380606,23.0024348 L108.380606,22.6351304 C108.380606,18.9314783 107.190707,15.9547826 104.810909,13.7050435 C102.431111,11.4553043 99.3987879,10.3304348 95.7139394,10.3304348 C92.0290909,10.3304348 88.9890909,11.4782609 86.5939394,13.773913 C84.1987879,16.0695652 83.0012121,19.0692174 83.0012121,22.7728696 L83.0012121,22.7728696 L83.0012121,23.1401739 C83.0012121,26.8132174 84.1987879,29.7746087 86.5939394,32.0243478 C88.9890909,34.274087 92.0137374,35.3989565 95.6678788,35.3989565 Z M95.7139394,30.3485217 C93.8408081,30.3485217 92.3822222,29.7057391 91.3381818,28.4201739 C90.3248485,27.104 89.8181818,25.298087 89.8181818,23.0024348 L89.8181818,23.0024348 L89.8181818,22.6351304 C89.8181818,20.3394783 90.340202,18.5565217 91.3842424,17.2862609 C92.4282828,16.016 93.8715152,15.3808696 95.7139394,15.3808696 C97.5870707,15.3808696 99.0379798,16.0313043 100.066667,17.3321739 C101.095354,18.6330435 101.609697,20.4313043 101.609697,22.7269565 L101.609697,22.7269565 L101.609697,23.0483478 C101.609697,25.344 101.095354,27.1346087 100.066667,28.4201739 C99.0379798,29.7057391 97.5870707,30.3485217 95.7139394,30.3485217 Z M119.527273,34.893913 L119.527273,21.0281739 C119.527273,19.314087 119.987879,18.0055652 120.909091,17.1026087 C121.830303,16.1996522 123.043232,15.7481739 124.547879,15.7481739 C126.021818,15.7481739 127.096566,16.1384348 127.772121,16.9189565 C128.447677,17.6994783 128.785455,18.9161739 128.785455,20.5690435 L128.785455,20.5690435 L128.785455,34.893913 L135.464242,34.893913 L135.464242,19.6048696 C135.464242,16.5133913 134.734949,14.1947826 133.276364,12.6490435 C131.817778,11.1033043 129.844848,10.3304348 127.357576,10.3304348 C125.453737,10.3304348 123.833939,10.736 122.498182,11.5471304 C121.162424,12.3582609 120.172121,13.4066087 119.527273,14.6921739 L119.527273,14.6921739 L119.527273,10.8813913 L112.848485,10.8813913 L112.848485,34.893913 L119.527273,34.893913 Z M144.630303,7.62156522 C145.705051,7.62156522 146.610909,7.28486957 147.347879,6.61147826 C148.084848,5.90747826 148.453333,5.03513043 148.453333,3.99443478 C148.453333,2.95373913 148.084848,2.08904348 147.347879,1.40034783 C146.610909,0.711652174 145.705051,0.367304348 144.630303,0.367304348 C143.555556,0.367304348 142.657374,0.711652174 141.935758,1.40034783 C141.214141,2.08904348 140.853333,2.95373913 140.853333,3.99443478 C140.853333,5.03513043 141.214141,5.89982609 141.935758,6.58852174 C142.657374,7.27721739 143.555556,7.62156522 144.630303,7.62156522 Z M147.992727,34.893913 L147.992727,10.8813913 L141.36,10.8813913 L141.36,34.893913 L147.992727,34.893913 Z M165.035152,35.3989565 C168.474343,35.3989565 171.207273,34.5189565 173.233939,32.7589565 C175.260606,30.9989565 176.366061,28.6650435 176.550303,25.7572174 L176.550303,25.7572174 L170.516364,25.7572174 C170.362828,27.2570435 169.810101,28.4048696 168.858182,29.2006957 C167.906263,29.9965217 166.739394,30.3944348 165.357576,30.3944348 C163.484444,30.3944348 162.033535,29.7746087 161.004848,28.5349565 C159.976162,27.2953043 159.461818,25.4817391 159.461818,23.0942609 L159.461818,23.0942609 L159.461818,22.7269565 C159.461818,20.461913 159.983838,18.701913 161.027879,17.4469565 C162.071919,16.192 163.469091,15.5645217 165.219394,15.5645217 C168.013737,15.5645217 169.641212,16.9266087 170.101818,19.6507826 L170.101818,19.6507826 L176.412121,19.6507826 C176.135758,16.4368696 174.945859,14.08 172.842424,12.5801739 C170.73899,11.0803478 168.151919,10.3304348 165.081212,10.3304348 C161.549899,10.3304348 158.594343,11.4706087 156.214545,13.7509565 C153.834747,16.0313043 152.644848,19.053913 152.644848,22.8187826 L152.644848,22.8187826 L152.644848,23.186087 C152.644848,27.0121739 153.80404,30.0041739 156.122424,32.162087 C158.440808,34.32 161.411717,35.3989565 165.035152,35.3989565 Z" id="Platonic" fill="#222222"></path>
                    <path d="M184.518788,35.3071304 C185.685657,35.3071304 186.668283,34.9168696 187.466667,34.1363478 C188.265051,33.3558261 188.664242,32.3993043 188.664242,31.2667826 C188.664242,30.1648696 188.265051,29.2236522 187.466667,28.4431304 C186.668283,27.6626087 185.685657,27.2723478 184.518788,27.2723478 C183.382626,27.2723478 182.415354,27.6626087 181.61697,28.4431304 C180.818586,29.2236522 180.419394,30.1648696 180.419394,31.2667826 C180.419394,32.3993043 180.818586,33.3558261 181.61697,34.1363478 C182.415354,34.9168696 183.382626,35.3071304 184.518788,35.3071304 Z" id="." fill="#49D395"></path>
                    <path d="M206.351515,35.3989565 C210.159192,35.3989565 213.206869,34.4041739 215.494545,32.4146087 C217.782222,30.4250435 218.926061,27.9304348 218.926061,24.9307826 C218.926061,21.6862609 217.974141,19.3523478 216.070303,17.9290435 C214.166465,16.5057391 211.095758,15.5186087 206.858182,14.9676522 C204.401616,14.6003478 202.766465,14.1182609 201.952727,13.5213913 C201.13899,12.9245217 200.732121,12.013913 200.732121,10.7895652 C200.732121,9.65704348 201.154343,8.75408696 201.998788,8.08069565 C202.843232,7.40730435 204.063838,7.0706087 205.660606,7.0706087 C208.854141,7.0706087 210.681212,8.52452174 211.141818,11.4323478 L211.141818,11.4323478 L218.004848,11.4323478 C217.697778,8.18782609 216.492525,5.73913043 214.389091,4.08626087 C212.285657,2.4333913 209.376162,1.60695652 205.660606,1.60695652 C202.067879,1.60695652 199.173737,2.52521739 196.978182,4.36173913 C194.782626,6.19826087 193.684848,8.53982609 193.684848,11.3864348 C193.684848,14.5085217 194.590707,16.8118261 196.402424,18.2963478 C198.214141,19.7808696 201.269495,20.7986087 205.568485,21.3495652 C207.994343,21.7168696 209.637172,22.1913043 210.49697,22.7728696 C211.356768,23.3544348 211.786667,24.3033043 211.786667,25.6194783 C211.786667,26.9050435 211.287677,27.9533913 210.289697,28.7645217 C209.291717,29.5756522 207.97899,29.9812174 206.351515,29.9812174 C204.109899,29.9812174 202.520808,29.5067826 201.584242,28.557913 C200.647677,27.6090435 200.087273,26.2928696 199.90303,24.6093913 L199.90303,24.6093913 L192.763636,24.6093913 C192.978586,28.0069565 194.206869,30.6546087 196.448485,32.5523478 C198.690101,34.450087 201.991111,35.3989565 206.351515,35.3989565 Z M233.204848,43.0664348 L246.24,10.8813913 L239.837576,10.8813913 L234.448485,25.298087 L228.598788,10.8813913 L221.413333,10.8813913 L230.993939,32.4605217 L226.756364,43.0664348 L233.204848,43.0664348 Z M258.584242,35.3989565 C261.808485,35.3989565 264.303434,34.7255652 266.069091,33.3787826 C267.834747,32.032 268.717576,30.0730435 268.717576,27.501913 C268.717576,25.0838261 267.972929,23.3391304 266.483636,22.2678261 C264.994343,21.1965217 262.622222,20.4313043 259.367273,19.9721739 C257.586263,19.7273043 256.365657,19.4212174 255.705455,19.053913 C255.045253,18.6866087 254.715152,18.1203478 254.715152,17.3551304 C254.715152,16.6205217 255.014545,16.0236522 255.613333,15.5645217 C256.212121,15.1053913 257.048889,14.8758261 258.123636,14.8758261 C260.273131,14.8758261 261.532121,15.84 261.900606,17.7683478 L261.900606,17.7683478 L268.026667,17.7683478 C267.473939,12.8097391 264.157576,10.3304348 258.077576,10.3304348 C255.436768,10.3304348 253.187475,10.9808696 251.329697,12.2817391 C249.471919,13.5826087 248.54303,15.4267826 248.54303,17.8142609 C248.54303,20.109913 249.210909,21.8086957 250.546667,22.9106087 C251.882424,24.0125217 254.177778,24.8083478 257.432727,25.298087 C259.213737,25.5429565 260.472727,25.8796522 261.209697,26.3081739 C261.946667,26.7366957 262.315152,27.3488696 262.315152,28.1446957 C262.315152,29.8893913 261.056162,30.7617391 258.538182,30.7617391 C257.156364,30.7617391 256.14303,30.4786087 255.498182,29.9123478 C254.853333,29.346087 254.454141,28.4966957 254.300606,27.3641739 L254.300606,27.3641739 L248.082424,27.3641739 C248.205253,29.965913 249.172525,31.9554783 250.984242,33.3328696 C252.79596,34.7102609 255.329293,35.3989565 258.584242,35.3989565 Z M281.752727,35.3530435 C283.226667,35.3530435 284.577778,35.1387826 285.806061,34.7102609 L285.806061,34.7102609 L285.806061,29.568 C285.069091,29.874087 284.224646,30.0271304 283.272727,30.0271304 C281.491717,30.0271304 280.601212,29.0782609 280.601212,27.1805217 L280.601212,27.1805217 L280.601212,15.6104348 L285.667879,15.6104348 L285.667879,10.8813913 L280.601212,10.8813913 L280.601212,5.69321739 L273.968485,5.69321739 L273.968485,10.8813913 L270.882424,10.8813913 L270.882424,15.6104348 L273.968485,15.6104348 L273.968485,27.7773913 C273.968485,30.2566957 274.628687,32.1391304 275.949091,33.4246957 C277.269495,34.7102609 279.20404,35.3530435 281.752727,35.3530435 Z M301.420606,35.3989565 C304.706263,35.3989565 307.347071,34.7026087 309.34303,33.309913 C311.33899,31.9172174 312.536566,29.92 312.935758,27.3182609 L312.935758,27.3182609 L306.625455,27.3182609 C306.164848,29.5526957 304.491313,30.669913 301.604848,30.669913 C299.793131,30.669913 298.365253,30.1189565 297.321212,29.0170435 C296.277172,27.9151304 295.709091,26.3693913 295.61697,24.3798261 L295.61697,24.3798261 L312.981818,24.3798261 L312.981818,22.5433043 C312.981818,18.5029565 311.868687,15.4573913 309.642424,13.4066087 C307.416162,11.3558261 304.614141,10.3304348 301.236364,10.3304348 C297.674343,10.3304348 294.718788,11.4782609 292.369697,13.773913 C290.020606,16.0695652 288.846061,19.0845217 288.846061,22.8187826 L288.846061,22.8187826 L288.846061,23.186087 C288.846061,26.9509565 290.012929,29.9276522 292.346667,32.1161739 C294.680404,34.3046957 297.705051,35.3989565 301.420606,35.3989565 Z M306.487273,20.2935652 L295.709091,20.2935652 C295.954747,18.5794783 296.561212,17.2556522 297.528485,16.322087 C298.495758,15.3885217 299.731717,14.9217391 301.236364,14.9217391 C304.52202,14.9217391 306.272323,16.7123478 306.487273,20.2935652 L306.487273,20.2935652 Z M324.036364,34.893913 L324.036364,20.7067826 C324.036364,19.1457391 324.473939,17.9366957 325.349091,17.0796522 C326.224242,16.2226087 327.337374,15.794087 328.688485,15.794087 C331.206465,15.794087 332.465455,17.2786087 332.465455,20.2476522 L332.465455,20.2476522 L332.465455,34.893913 L339.098182,34.893913 L339.098182,20.7067826 C339.098182,19.1457391 339.535758,17.9366957 340.410909,17.0796522 C341.286061,16.2226087 342.399192,15.794087 343.750303,15.794087 C346.268283,15.794087 347.527273,17.2786087 347.527273,20.2476522 L347.527273,20.2476522 L347.527273,34.893913 L354.16,34.893913 L354.16,19.5130435 C354.16,16.4521739 353.430707,14.1565217 351.972121,12.626087 C350.513535,11.0956522 348.60202,10.3304348 346.237576,10.3304348 C342.706263,10.3304348 340.00404,11.7231304 338.130909,14.5085217 C336.994747,11.7231304 334.753131,10.3304348 331.406061,10.3304348 C329.717172,10.3304348 328.227879,10.7283478 326.938182,11.5241739 C325.648485,12.32 324.681212,13.330087 324.036364,14.5544348 L324.036364,14.5544348 L324.036364,10.8813913 L317.357576,10.8813913 L317.357576,34.893913 L324.036364,34.893913 Z M368.62303,35.3989565 C371.847273,35.3989565 374.342222,34.7255652 376.107879,33.3787826 C377.873535,32.032 378.756364,30.0730435 378.756364,27.501913 C378.756364,25.0838261 378.011717,23.3391304 376.522424,22.2678261 C375.033131,21.1965217 372.66101,20.4313043 369.406061,19.9721739 C367.625051,19.7273043 366.404444,19.4212174 365.744242,19.053913 C365.08404,18.6866087 364.753939,18.1203478 364.753939,17.3551304 C364.753939,16.6205217 365.053333,16.0236522 365.652121,15.5645217 C366.250909,15.1053913 367.087677,14.8758261 368.162424,14.8758261 C370.311919,14.8758261 371.570909,15.84 371.939394,17.7683478 L371.939394,17.7683478 L378.065455,17.7683478 C377.512727,12.8097391 374.196364,10.3304348 368.116364,10.3304348 C365.475556,10.3304348 363.226263,10.9808696 361.368485,12.2817391 C359.510707,13.5826087 358.581818,15.4267826 358.581818,17.8142609 C358.581818,20.109913 359.249697,21.8086957 360.585455,22.9106087 C361.921212,24.0125217 364.216566,24.8083478 367.471515,25.298087 C369.252525,25.5429565 370.511515,25.8796522 371.248485,26.3081739 C371.985455,26.7366957 372.353939,27.3488696 372.353939,28.1446957 C372.353939,29.8893913 371.094949,30.7617391 368.57697,30.7617391 C367.195152,30.7617391 366.181818,30.4786087 365.53697,29.9123478 C364.892121,29.346087 364.492929,28.4966957 364.339394,27.3641739 L364.339394,27.3641739 L358.121212,27.3641739 C358.24404,29.965913 359.211313,31.9554783 361.02303,33.3328696 C362.834747,34.7102609 365.368081,35.3989565 368.62303,35.3989565 Z" id="Systems" fill="#222222"></path>
                </g>
                <g id="Group-42">
                    <polygon id="Fill-1" fill="#1F59F4" points="56.9278769 91.1038961 30.0191396 82.2756342 28.5 53.7662338 57 62.376542"></polygon>
                    <polygon id="Fill-2" fill="url(#linearGradient-1)" points="0 63.4446575 30.2442912 73.1818182 51 57.8309095 22.2382057 49.2857143"></polygon>
                    <polygon id="Fill-3" fill="#1F59F4" points="61.4008029 50.7792208 33 42.889711 51.0323518 31.3636364 78 38.3868619"></polygon>
                    <polygon id="Fill-4" fill="url(#linearGradient-2)" points="57 44.8051948 27.1258715 36.9950831 25.5 4.48051948 56.9254971 11.3674554"></polygon>
                    <polygon id="Fill-5" fill="#1C51AF" points="49.5 59.9815448 28.5 53.7662338 29.5279397 72.6596626 31.1918931 73.1818182"></polygon>
                    <polygon id="Fill-6" fill="url(#linearGradient-3)" points="69.4520759 10.5386695 69 44.8051948 85.5945669 32.4027612 87 0"></polygon>
                    <polygon id="Fill-7" fill="#1F59F4" points="37.5 29.6458844 38.7181455 67.2077922 59.8718146 51.5889241 60 16.4285714"></polygon>
                    <polygon id="Fill-8" fill="#1F59F4" points="69.66203 60.5242487 69 89.6103896 84.6236056 75.2318197 85.5 47.7922078"></polygon>
                    <polygon id="Fill-9" fill="url(#linearGradient-4)" points="39 83.6587634 40.370431 115 60 96.9798993 60 67.2077922"></polygon>
                    <polygon id="Fill-10" fill="#1F59F4" points="76.5 54.114306 108.477256 62.7272727 123 49.2791606 92.5616181 41.8181818"></polygon>
                    <polygon id="Fill-11" fill="url(#linearGradient-5)" points="72.6552443 67.2077922 72 96.0645719 102.595399 106.038961 105 76.3977208"></polygon>
                    <polygon id="Fill-12" fill="url(#linearGradient-6)" points="72.8714346 14.9350649 108 22.947059 105.241727 59.7402597 72 50.3191014"></polygon>
                    <polygon id="Fill-13" fill="#1C51AF" points="69.0015501 44.8044286 78 38.1127636 69.1185842 35.8441558 69 44.8051948"></polygon>
                    <polygon id="Fill-14" fill="#1944A3" points="57 70.1948052 39 84.0436836 39 86.2160567 56.946898 91.1038961"></polygon>
                    <polygon id="Fill-16" fill="#1C51AF" points="85.190583 56.7532468 85.5 47.7922078 76.5 54.4809386"></polygon>
                    <polygon id="Fill-17" fill="#1F59F4" points="46.5 77.9368433 66.8359504 61.2337662 100.5 71.2459177 82.1212528 89.6103896"></polygon>
                    <polygon id="Fill-18" fill="#1C51AF" points="37.8661319 39.6792272 57 44.8051948 56.9405229 17.9220779 37.5 29.2448045"></polygon>
                    <polygon id="Fill-19" fill="#1944A3" points="37.5 43.3766234 60 49.2857143 60 32.3104239 51.0204057 29.8701299 37.5 38.5930736"></polygon>
                    <polygon id="Fill-21" fill="#1C51AF" points="84.9047197 31.9234631 85.5 17.8550054 72.6640815 14.9350649 72 41.8181818"></polygon>
                    <polygon id="Fill-22" fill="#1C51AF" points="105.423997 59.7402597 106.5 45.4504438 92.5480786 41.8181818 79.5 52.4272639"></polygon>
                    <polygon id="Fill-23" fill="#1C51AF" points="37.5 53.7662338 37.9406461 67.2077922 51 57.6785068"></polygon>
                    <polygon id="Fill-24" fill="#11327C" points="37.8148188 67.2077922 48 59.8616349 37.5 56.7532468"></polygon>
                    <polygon id="Fill-25" fill="#1C51AF" points="60 82.1428571 60 67.2077922 46.5 77.6940169"></polygon>
                    <g id="Group-30" transform="translate(67.500000, 61.233766)" fill="#1944A3">
                        <polygon id="Fill-26" points="14.4030274 28.1552946 29.8079229 12.2269089 3.87490897 4.32016982 3.44889852 24.439948"></polygon>
                        <polygon id="Fill-28" points="0.140316638 23.315573 3.73310409 24.5342191 15.807034 13.2557768 16.0714286 4.63848651 0.646762631 0.0893804641"></polygon>
                    </g>
                    <polygon id="Fill-31" fill="#11327C" points="57 82.1428571 57 70.1948052 46.5 78.4446506"></polygon>
                    <polygon id="Fill-32" fill="#11327C" points="85.2142857 53.7662338 85.5 47.7922078 79.5 52.3438466"></polygon>
                    <polygon id="Fill-33" fill="#11327C" points="72 41.8181818 78 37.3427638 72 35.8441558"></polygon>
                    <line x1="82.5" y1="89.6103896" x2="97.5" y2="74.6753247" id="Fill-34" fill="#1C51AF"></line>
                    <polygon id="Fill-40" fill="#11327C" points="70.8037943 86.6233766 70.5 86.5294706 70.9509198 67.2077922 84 70.7627584 83.8210636 75.3912774"></polygon>
                    <polygon id="Fill-41" fill="#11327C" points="56.9706029 32.9070777 57 46.2987013 37.5484655 41.043771 37.5 39.607278 50.8099283 31.3636364"></polygon>
                </g>
            </g>
        </g>
    </g>
</svg>