<?xml version="1.0" encoding="UTF-8"?>
<svg width="81px" height="81px" viewBox="0 0 81 81" version="1.1" xmlns="http://www.w3.org/2000/svg" xmlns:xlink="http://www.w3.org/1999/xlink">
    <title>pending</title>
    <g id="Website" stroke="none" stroke-width="1" fill="none" fill-rule="evenodd">
        <g id="Affiliates" transform="translate(-58.000000, -1327.000000)" fill="#999999" fill-rule="nonzero">
            <path d="M98.4898361,1327.87768 C109.17404,1327.87768 119.219206,1332.03844 126.774138,1339.59338 C134.32907,1347.14831 138.489836,1357.19347 138.489836,1367.87768 C138.489836,1378.56188 134.32907,1388.60705 126.774138,1396.16198 C119.219206,1403.71691 109.17465,1407.87768 98.4904464,1407.87768 L98.4904464,1407.87768 L97.9281101,1407.87384 C87.4539575,1407.73064 77.628523,1403.58437 70.2055343,1396.16198 C62.6506026,1388.60705 58.4898361,1378.56188 58.4898361,1367.87768 C58.4898361,1357.19347 62.6506026,1347.14831 70.2055343,1339.59338 C77.7610764,1332.03844 87.805632,1327.87768 98.4898361,1327.87768 Z M86.8388351,1392.74523 L82.9051192,1399.5592 C86.9456467,1401.55505 91.4201339,1402.79955 96.1460861,1403.11083 L96.1460861,1403.11083 L96.1460861,1395.2257 C92.8880295,1394.95165 89.74655,1394.10998 86.8388351,1392.74523 L86.8388351,1392.74523 Z M110.132292,1392.72997 C107.267302,1394.07763 104.132536,1394.94433 100.833586,1395.22448 L100.833586,1395.22448 L100.833586,1403.11022 C105.559538,1402.79894 110.034025,1401.55444 114.074553,1399.5592 L114.074553,1399.5592 Z M120.992277,1383.57592 C119.140471,1386.2224 116.834563,1388.52831 114.188078,1390.38012 L114.188078,1390.38012 L118.130949,1397.20995 C121.955412,1394.64037 125.252531,1391.34325 127.822111,1387.51879 L127.822111,1387.51879 Z M75.9721359,1383.58447 L69.1581711,1387.51879 C71.7277511,1391.34386 75.0242598,1394.64037 78.8487228,1397.20934 L78.8487228,1397.20934 L82.7830489,1390.39477 C81.4738448,1389.47741 80.2348312,1388.43981 79.0812667,1387.28625 C77.927092,1386.13207 76.8894942,1384.89367 75.9721359,1383.58447 L75.9721359,1383.58447 Z M98.4904464,1345.11706 C85.9397873,1345.11706 75.7298264,1355.32763 75.7298264,1367.87768 C75.7298264,1371.87792 76.7546065,1375.7207 78.6808761,1379.10571 C78.7144454,1379.15575 78.7486251,1379.20519 78.7791426,1379.25768 C78.8041672,1379.30163 78.824919,1379.34679 78.847502,1379.39196 C79.8191817,1381.04235 81.0057051,1382.58166 82.3954758,1383.97143 C83.7870773,1385.36303 85.3269942,1386.55016 86.9792159,1387.52245 C87.0231612,1387.54382 87.0671065,1387.56396 87.1098312,1387.58898 C87.1611008,1387.61828 87.2087081,1387.65124 87.2569259,1387.6842 C90.6437667,1389.61169 94.4877609,1390.63769 98.4898361,1390.63769 C111.039885,1390.63769 121.250456,1380.42773 121.250456,1367.87768 C121.250456,1355.32763 111.039885,1345.11706 98.4904464,1345.11706 Z M133.72299,1370.22143 L125.836638,1370.22143 C125.556486,1373.52038 124.690398,1376.65453 123.342741,1379.52013 L123.342741,1379.52013 L130.171355,1383.4624 C132.167204,1379.42187 133.411711,1374.94738 133.72299,1370.22143 L133.72299,1370.22143 Z M96.1460861,1332.64513 C77.7635176,1333.85546 63.1773361,1349.19421 63.1773361,1367.87768 C63.1773361,1373.4685 64.4853195,1378.75903 66.8089279,1383.4624 L66.8089279,1383.4624 L73.6222823,1379.52868 C71.9328292,1375.92883 71.0423264,1371.97192 71.0423264,1367.87768 C71.0423264,1353.53259 82.1043379,1341.72411 96.1460861,1340.53088 L96.1460861,1340.53088 Z M105.708464,1357.34484 C106.623381,1356.42931 108.107756,1356.42931 109.022673,1357.34484 C109.9382,1358.25976 109.9382,1359.74413 109.022673,1360.65905 L109.022673,1360.65905 L91.2712081,1378.41052 C90.8140548,1378.86828 90.2140792,1379.09716 89.6141036,1379.09716 C89.0147384,1379.09716 88.4147628,1378.86828 87.9569992,1378.41052 C87.0414718,1377.4956 87.0414718,1376.01122 87.9569992,1375.09631 L87.9569992,1375.09631 Z M105.590056,1372.63415 C106.207121,1372.63415 106.81198,1372.88378 107.247771,1373.3214 C107.683562,1373.75719 107.933806,1374.36083 107.933806,1374.9779 C107.933806,1375.59496 107.683562,1376.19982 107.247771,1376.63561 C106.81198,1377.0714 106.207121,1377.32165 105.590056,1377.32165 C104.974211,1377.32165 104.369353,1377.0714 103.933562,1376.63561 C103.49594,1376.19982 103.246306,1375.59496 103.246306,1374.9779 C103.246306,1374.36022 103.49594,1373.75719 103.933562,1373.3214 C104.369353,1372.88378 104.974211,1372.63415 105.590056,1372.63415 Z M130.171355,1352.29296 L123.342131,1356.23522 C124.689787,1359.10082 125.556486,1362.23498 125.836638,1365.53393 L125.836638,1365.53393 L133.72299,1365.53393 C133.411711,1360.80798 132.167204,1356.33349 130.171355,1352.29296 L130.171355,1352.29296 Z M91.3902267,1358.43371 C92.0072922,1358.43371 92.6103195,1358.68395 93.0461104,1359.11974 C93.4837326,1359.55615 93.7339767,1360.16039 93.7339767,1360.77746 C93.7339767,1361.3933 93.4837326,1361.99816 93.0461104,1362.43395 C92.6103195,1362.87157 92.0072922,1363.12121 91.3902267,1363.12121 C90.7725509,1363.12121 90.1676925,1362.87157 89.7319015,1362.43395 C89.2961104,1361.99816 89.0464767,1361.3933 89.0464767,1360.77746 C89.0464767,1360.16039 89.2961104,1359.55615 89.7319015,1359.11974 C90.1683029,1358.68395 90.7725509,1358.43371 91.3902267,1358.43371 Z M118.130949,1338.5454 L114.188078,1345.37524 C116.834563,1347.22704 119.140471,1349.53295 120.992277,1352.17944 L120.992277,1352.17944 L127.822111,1348.23657 C125.252531,1344.4121 121.956023,1341.11498 118.130949,1338.5454 L118.130949,1338.5454 Z M100.833586,1332.64513 L100.833586,1340.53088 C104.132536,1340.81103 107.267302,1341.67773 110.132292,1343.02477 L110.132292,1343.02477 L114.074553,1336.19616 C110.034025,1334.20092 105.559538,1332.95641 100.833586,1332.64513 L100.833586,1332.64513 Z" id="pending"></path>
        </g>
    </g>
</svg>