<?xml version="1.0" encoding="utf-8"?>
<!-- Generator: Adobe Illustrator 25.3.1, SVG Export Plug-In . SVG Version: 6.00 Build 0)  -->
<svg version="1.1" id="Layer_1" xmlns="http://www.w3.org/2000/svg" xmlns:xlink="http://www.w3.org/1999/xlink" x="0px" y="0px"
	 viewBox="0 0 239.1 58.12" style="enable-background:new 0 0 239.1 58.12;" xml:space="preserve">
<style type="text/css">
	.st0{clip-path:url(#SVGID_2_);fill:url(#SVGID_3_);}
	.st1{fill:#BF2026;}
	.st2{font-family:'CenturyGothic-Bold';}
	.st3{font-size:31px;}
	.st4{letter-spacing:1;}
	.st5{fill:#2C3897;}
</style>
<g>
	<defs>
		<path id="SVGID_1_" d="M52.68,38.67c10.16-7.41,21.75-12.65,33.08-19.12c1.51,4.94,0.46,7.96-3.17,9.88
			c-8.27,4.36-19.77,10.87-32.74,17.68C49.85,47.11,48.93,41.41,52.68,38.67z M56.65,48.82c-2.99,1.8-4.48,4.54-3.21,8.65
			c5.86-3.07,11.26-5.94,16.71-8.74c3.67-1.88,5.04-4.61,3.2-9.26C67.64,42.65,62.05,45.58,56.65,48.82z M93.21,0
			C78.86,8.1,65.23,15.66,51.77,23.49c-3.65,2.12-4.4,5.88-3.48,10.64c14.38-7.72,28.41-15.17,42.35-22.8
			C94.98,8.95,93.35,4.75,93.21,0z M41.94,38.67C31.79,31.25,20.2,26.02,8.87,19.55c-1.51,4.94-0.46,7.96,3.17,9.88
			c8.27,4.36,19.77,10.87,32.74,17.68C44.78,47.11,45.7,41.41,41.94,38.67z M21.28,39.47c-1.84,4.65-0.47,7.38,3.2,9.26
			c5.44,2.79,10.85,5.67,16.71,8.74c1.27-4.11-0.22-6.85-3.21-8.65C32.58,45.58,26.99,42.65,21.28,39.47z M2.99,11.33
			c13.94,7.63,27.97,15.08,42.35,22.8c0.92-4.76,0.17-8.52-3.48-10.64C28.39,15.66,14.77,8.1,0.42,0C0.27,4.75-1.35,8.95,2.99,11.33
			z"/>
	</defs>
	<clipPath id="SVGID_2_">
		<use xlink:href="#SVGID_1_"  style="overflow:visible;"/>
	</clipPath>
	<linearGradient id="SVGID_3_" gradientUnits="userSpaceOnUse" x1="46.9273" y1="-2.8672" x2="46.9273" y2="59.1328">
		<stop  offset="0" style="stop-color:#C32028"/>
		<stop  offset="1" style="stop-color:#94292A"/>
	</linearGradient>
	<rect x="-2.07" y="-2.87" class="st0" width="98" height="62"/>
</g>
<text transform="matrix(1 0 0 1 93.626 49.2999)" class="st1 st2 st3 st4">Ex</text>
<text transform="matrix(1 0 0 1 127.0165 49.2999)" class="st5 st2 st3 st4">Freight</text>
</svg>
