<?xml version="1.0" encoding="utf-8"?>
<!-- Generator: Adobe Illustrator 25.2.3, SVG Export Plug-In . SVG Version: 6.00 Build 0)  -->
<svg version="1.1" id="Layer_1" xmlns="http://www.w3.org/2000/svg" xmlns:xlink="http://www.w3.org/1999/xlink" x="0px" y="0px"
	 viewBox="0 0 376.43 303.11" style="enable-background:new 0 0 376.43 303.11;" xml:space="preserve">
<style type="text/css">
	.st0{fill:#473B62;}
	.st1{fill:#904F8C;}
	.st2{fill:#5F5187;}
</style>
<polygon class="st0" points="44.14,47.51 96.89,47.51 164.81,151.95 96.19,255.73 44.14,255.73 115.05,151.62 "/>
<g>
	<polygon class="st1" points="224.68,108.13 339.3,108.13 339.3,143.35 246.97,143.35 	"/>
	<polygon class="st1" points="258.94,160.19 339.3,160.19 339.3,195.41 281.99,195.41 	"/>
</g>
<polygon class="st1" points="155.2,108.74 207.35,108.74 306.49,256.39 253.74,256.39 "/>
<polygon class="st0" points="44.14,47.51 96.89,47.51 164.81,151.95 96.19,255.73 44.14,255.73 115.05,151.62 "/>
<g>
	<polygon class="st1" points="224.68,108.13 339.3,108.13 339.3,143.35 246.97,143.35 	"/>
	<polygon class="st1" points="258.94,160.19 339.3,160.19 339.3,195.41 281.99,195.41 	"/>
</g>
<polygon class="st1" points="155.2,108.74 207.35,108.74 306.49,256.39 253.74,256.39 "/>
<path class="st2" d="M209.29,189.44"/>
<polyline class="st0" points="145.63,94.47 113.55,47.29 166.3,47.29 166.26,47.29 197.63,93.47 "/>
<polygon class="st0" points="200.63,203.47 165.61,255.51 113.55,255.51 174.63,165.47 "/>
<polygon class="st1" points="207.63,108.47 306.71,256.17 253.96,256.17 154.63,108.47 "/>
</svg>
