<?xml version="1.0" standalone="no"?>
<!DOCTYPE svg PUBLIC "-//W3C//DTD SVG 20010904//EN"
 "http://www.w3.org/TR/2001/REC-SVG-20010904/DTD/svg10.dtd">
<svg version="1.0" xmlns="http://www.w3.org/2000/svg"
 width="100.000000pt" height="100.000000pt" viewBox="0 0 100.000000 100.000000"
 preserveAspectRatio="xMidYMid meet">
<metadata>
Created by potrace 1.14, written by Peter Selinger 2001-2017
</metadata>
<g transform="translate(0.000000,100.000000) scale(0.100000,-0.100000)"
fill="#000000" stroke="none">
<path d="M125 772 c-2 -2 36 -64 86 -138 49 -73 89 -137 89 -140 0 -4 -41 -67
-90 -141 -71 -104 -87 -133 -73 -134 50 -4 117 1 123 8 4 4 46 66 93 137 l85
128 -44 69 c-24 38 -64 101 -89 139 -42 66 -47 70 -82 71 -21 0 -51 2 -66 3
-15 1 -30 0 -32 -2z"/>
<path d="M310 765 c0 -3 16 -30 36 -60 l37 -55 69 0 c52 0 67 3 62 13 -4 6
-21 33 -38 59 l-31 47 -67 1 c-38 0 -68 -2 -68 -5z"/>
<path d="M540 415 c72 -107 134 -195 138 -196 26 -4 132 -5 132 -1 0 2 -57 91
-127 198 l-128 193 -72 1 -73 0 130 -195z"/>
<path d="M621 573 c12 -21 25 -41 29 -46 6 -6 94 -10 208 -8 l42 1 0 45 0 45
-151 0 -151 0 23 -37z"/>
<path d="M702 448 c8 -13 21 -33 29 -45 12 -21 22 -23 91 -23 l78 0 0 45 0 45
-106 0 -106 0 14 -22z"/>
<path d="M386 343 c-43 -63 -75 -117 -72 -121 8 -7 113 -5 126 3 10 6 90 122
90 130 0 3 -15 28 -33 54 l-32 49 -79 -115z"/>
</g>
</svg>
