<?xml version="1.0" encoding="utf-8"?>
<!-- Generator: Adobe Illustrator 25.2.3, SVG Export Plug-In . SVG Version: 6.00 Build 0)  -->
<svg version="1.1" id="Layer_1" xmlns="http://www.w3.org/2000/svg" xmlns:xlink="http://www.w3.org/1999/xlink" x="0px" y="0px"
	 viewBox="0 0 412.05 188.24" style="enable-background:new 0 0 412.05 188.24;" xml:space="preserve">
<style type="text/css">
	.st0{fill:#999999;}
	.st1{fill:#333333;}
</style>
<g>
	<g>
		<g>
			<path class="st0" d="M66.26,178.36c-2.93-8.99-14.55-4.69-20.15-12.94c-5.72-8.47-8.23-24.4-11.42-33.85
				c-4.09-12.16,7.12-21.69,14.84-30.43c-1.09-5.68,2.3-8.09,4.57-11.42C41.14,74.01,27.57,58.95,14.53,43.32
				C2.59,49.28-5.02,32.77,3.88,26.97c8.48-5.55,19.61,4.34,13.7,13.3c12.15,16.76,28.13,29.7,42.99,43.75
				c6.15-0.81,11.51-3.12,16.35,0.76c4.95-2.16,10.99-3.22,16.36-4.95c0.68-1.33,0.24-3.8,1.14-4.95c2.81-2.01,6.56-3.08,11.02-3.43
				c5.49-17.44,7.64-34.22,11.42-52.48c-6.28-2.01-9.07-13.68-2.66-17.5c12.27-7.29,22.55,14.75,6.09,17.12
				c-2.68,16.93-5.71,36.33-7.99,54.01c3.52,1.44,6.56,3.33,8.37,6.47c4.61-0.75,9.13,2.28,13.7,2.28c2.51,0,5.47-2.14,7.61-2.28
				c15.9-1.05,25.5,14.16,18.25,29.29c1.97,9.05,14.4,28.64-1.9,30.44c1.22,5.63,0.41,11.56-1.52,15.97 M156.79,154.77
				c-11.47,29.08-63.6,45.01-90.54,23.59"/>
		</g>
	</g>
	<g>
		<g>
			<path class="st1" d="M102.63,161.5V92.1h29.63v9.36h-19.69v21.05h17.16v9.36h-17.16v29.63H102.63z"/>
			<path class="st1" d="M138.7,161.5V92.1h9.94v59.46h19.69v9.94H138.7z"/>
			<path class="st1" d="M173.56,161.5V92.1h9.94v69.4H173.56z"/>
			<path class="st1" d="M191.66,161.5V92.1h14.91c2.73,0,5.13,0.36,7.21,1.07c2.08,0.72,3.96,1.98,5.65,3.8
				c1.69,1.82,2.86,3.95,3.51,6.38c0.65,2.44,0.98,5.74,0.98,9.89c0,3.12-0.18,5.75-0.54,7.9c-0.36,2.14-1.12,4.16-2.29,6.04
				c-1.36,2.28-3.18,4.05-5.46,5.31c-2.28,1.27-5.26,1.9-8.97,1.9h-5.07v27.1H191.66z M201.6,101.46v23.59h4.78
				c2.01,0,3.57-0.29,4.68-0.88c1.1-0.58,1.92-1.4,2.44-2.44c0.52-0.97,0.83-2.18,0.93-3.61c0.1-1.43,0.15-3.02,0.15-4.78
				c0-1.62-0.03-3.17-0.1-4.63c-0.07-1.46-0.36-2.74-0.88-3.85c-0.52-1.1-1.3-1.95-2.34-2.53c-1.04-0.58-2.54-0.88-4.48-0.88H201.6z
				"/>
			<path class="st1" d="M262.01,112.08h-9.94v-2.24c0-2.27-0.54-4.24-1.61-5.9c-1.07-1.66-2.87-2.49-5.41-2.49
				c-1.37,0-2.47,0.26-3.31,0.78c-0.85,0.52-1.53,1.17-2.05,1.95c-0.52,0.84-0.88,1.8-1.07,2.88c-0.2,1.07-0.29,2.19-0.29,3.36
				c0,1.36,0.05,2.5,0.15,3.41c0.1,0.91,0.34,1.72,0.73,2.44c0.39,0.72,0.96,1.33,1.71,1.85c0.75,0.52,1.77,1.04,3.07,1.56l7.6,3.02
				c2.21,0.84,4,1.84,5.36,2.97c1.36,1.14,2.44,2.45,3.22,3.95c0.71,1.56,1.2,3.33,1.46,5.31c0.26,1.98,0.39,4.24,0.39,6.77
				c0,2.92-0.29,5.64-0.88,8.14c-0.58,2.5-1.53,4.63-2.83,6.38c-1.36,1.82-3.15,3.25-5.36,4.29c-2.21,1.04-4.91,1.56-8.09,1.56
				c-2.41,0-4.65-0.42-6.73-1.27c-2.08-0.84-3.87-2.01-5.36-3.51c-1.5-1.49-2.68-3.23-3.56-5.21c-0.88-1.98-1.32-4.14-1.32-6.48
				v-3.7h9.94v3.12c0,1.82,0.54,3.46,1.61,4.92c1.07,1.46,2.87,2.19,5.41,2.19c1.69,0,3-0.24,3.95-0.73
				c0.94-0.49,1.67-1.19,2.19-2.1c0.52-0.91,0.83-2,0.93-3.26c0.1-1.27,0.15-2.68,0.15-4.24c0-1.82-0.07-3.31-0.19-4.48
				c-0.13-1.17-0.39-2.11-0.78-2.83c-0.46-0.71-1.06-1.3-1.8-1.75c-0.75-0.45-1.74-0.94-2.97-1.46l-7.12-2.92
				c-4.29-1.75-7.16-4.08-8.63-6.97c-1.46-2.89-2.19-6.51-2.19-10.87c0-2.6,0.36-5.07,1.07-7.41c0.71-2.34,1.79-4.35,3.22-6.04
				c1.36-1.69,3.1-3.04,5.21-4.04c2.11-1.01,4.63-1.51,7.55-1.51c2.47,0,4.73,0.46,6.77,1.36c2.05,0.91,3.82,2.11,5.31,3.61
				c2.99,3.12,4.49,6.69,4.49,10.72V112.08z"/>
			<path class="st1" d="M275.94,161.5v-60.04h-11.5V92.1h32.95v9.36h-11.5v60.04H275.94z"/>
			<path class="st1" d="M300.02,108.48c0-2.79,0.49-5.26,1.46-7.41c0.97-2.14,2.27-3.93,3.9-5.36c1.56-1.36,3.33-2.4,5.31-3.12
				c1.98-0.71,3.98-1.07,6-1.07c2.01,0,4.01,0.36,5.99,1.07c1.98,0.72,3.79,1.75,5.41,3.12c1.56,1.43,2.83,3.22,3.8,5.36
				c0.98,2.14,1.46,4.62,1.46,7.41v36.65c0,2.92-0.49,5.43-1.46,7.51c-0.97,2.08-2.24,3.8-3.8,5.17c-1.62,1.43-3.43,2.5-5.41,3.22
				c-1.98,0.71-3.98,1.07-5.99,1.07c-2.01,0-4.01-0.36-6-1.07c-1.98-0.71-3.75-1.79-5.31-3.22c-1.63-1.37-2.93-3.09-3.9-5.17
				c-0.97-2.08-1.46-4.58-1.46-7.51V108.48z M309.96,145.13c0,2.41,0.67,4.18,2,5.31c1.33,1.14,2.91,1.71,4.73,1.71
				c1.82,0,3.4-0.57,4.73-1.71c1.33-1.14,2-2.91,2-5.31v-36.65c0-2.4-0.67-4.17-2-5.31c-1.33-1.14-2.91-1.71-4.73-1.71
				c-1.82,0-3.4,0.57-4.73,1.71c-1.33,1.14-2,2.91-2,5.31V145.13z"/>
			<path class="st1" d="M340.24,161.5V92.1h9.55l15.01,41.82h0.2V92.1h9.94v69.4h-9.36l-15.21-41.72h-0.2v41.72H340.24z"/>
			<path class="st1" d="M382.42,161.5V92.1h29.63v9.36h-19.69v20.37h17.15v9.36h-17.15v20.37h19.69v9.94H382.42z"/>
		</g>
	</g>
</g>
</svg>
