<?xml version="1.0" encoding="UTF-8" standalone="no"?>
<svg
   xmlns:dc="http://purl.org/dc/elements/1.1/"
   xmlns:cc="http://creativecommons.org/ns#"
   xmlns:rdf="http://www.w3.org/1999/02/22-rdf-syntax-ns#"
   xmlns:svg="http://www.w3.org/2000/svg"
   xmlns="http://www.w3.org/2000/svg"
   viewBox="0 0 1066.6667 1066.6667"
   height="1066.6667"
   width="1066.6667"
   xml:space="preserve"
   id="svg2"
   version="1.1"><metadata
     id="metadata8"><rdf:RDF><cc:Work
         rdf:about=""><dc:format>image/svg+xml</dc:format><dc:type
           rdf:resource="http://purl.org/dc/dcmitype/StillImage" /></cc:Work></rdf:RDF></metadata><defs
     id="defs6"><clipPath
       id="clipPath22"
       clipPathUnits="userSpaceOnUse"><path
         id="path20"
         d="M 0,800 H 800 V 0 H 0 Z" /></clipPath></defs><g
     transform="matrix(1.3333333,0,0,-1.3333333,0,1066.6667)"
     id="g10"><g
       transform="translate(421.4955,379.8905)"
       id="g12"><path
         id="path14"
         style="fill:#000000;fill-opacity:1;fill-rule:nonzero;stroke:none"
         d="M 0,0 -54.888,108.813 H -84.975 V -69.199 h 28.081 V 58.919 L -7.773,-38.11 H 7.772 L 55.404,58.919 V -69.199 H 83.735 V 108.813 H 53.649 Z" /></g><g
       id="g16"><g
         clip-path="url(#clipPath22)"
         id="g18"><g
           transform="translate(294.0941,346.8641)"
           id="g24"><path
             id="path26"
             style="fill:#000000;fill-opacity:1;fill-rule:nonzero;stroke:none"
             d="m 0,0 h -148.145 v -0.031 c -0.208,0.009 -0.411,0.031 -0.621,0.031 -7.755,0 -14.04,-6.286 -14.04,-14.041 0,-7.754 6.285,-14.04 14.04,-14.04 0.21,0 0.413,0.022 0.621,0.031 v -0.031 H 0 c 7.754,0 14.04,6.286 14.04,14.04 C 14.04,-6.286 7.754,0 0,0" /></g><g
           transform="translate(294.0941,480.6112)"
           id="g28"><path
             id="path30"
             style="fill:#000000;fill-opacity:1;fill-rule:nonzero;stroke:none"
             d="m 0,0 h -148.145 v -0.031 c -0.208,0.009 -0.411,0.031 -0.621,0.031 -7.755,0 -14.04,-6.286 -14.04,-14.04 0,-7.755 6.285,-14.041 14.04,-14.041 0.21,0 0.413,0.022 0.621,0.031 v -0.031 H 0 c 7.754,0 14.04,6.286 14.04,14.041 C 14.04,-6.286 7.754,0 0,0" /></g><g
           transform="translate(239.889,385.6571)"
           id="g32"><path
             id="path34"
             style="fill:#000000;fill-opacity:1;fill-rule:nonzero;stroke:none"
             d="M 0,0 V 0.064 C 7.153,0.713 12.76,6.719 12.76,14.04 12.76,21.362 7.153,27.368 0,28.016 v 0.065 H -127.124 V 28.05 c -0.208,0.009 -0.412,0.031 -0.621,0.031 -7.755,0 -14.04,-6.286 -14.04,-14.041 0,-7.754 6.285,-14.04 14.04,-14.04 0.209,0 0.413,0.022 0.621,0.031 l 0,-0.031 z" /></g><g
           transform="translate(617.0453,338.3094)"
           id="g36"><path
             id="path38"
             style="fill:#000000;fill-opacity:1;fill-rule:nonzero;stroke:none"
             d="m 0,0 c -30.873,0 -55.901,27.703 -55.901,61.877 0,34.174 25.028,61.877 55.901,61.877 30.874,0 55.902,-27.703 55.902,-61.877 C 55.902,27.703 30.874,0 0,0 m 0,151.383 c -46.524,0 -84.24,-40.073 -84.24,-89.506 0,-49.433 37.716,-89.506 84.24,-89.506 46.525,0 84.241,40.073 84.241,89.506 0,49.433 -37.716,89.506 -84.241,89.506" /></g><g
           transform="translate(701.8969,310.3211)"
           id="g40"><path
             id="path42"
             style="fill:#000000;fill-opacity:1;fill-rule:nonzero;stroke:none"
             d="M 0,0 -53.57,60.408 H -91.438 L -37.855,-0.014 H -0.016 Z" /></g></g></g></g></svg>