<?xml version="1.0" encoding="UTF-8"?>
<svg xmlns="http://www.w3.org/2000/svg" xmlns:xlink="http://www.w3.org/1999/xlink" version="1.1" x="0px" y="0px" viewBox="0 0 473.54 75" style="enable-background:new 0 0 473.54 75;" xml:space="preserve"> <g> <path fill="#252C5C" d="M48.75,48.65c-0.01,5.94-0.04,11.89-0.01,17.83c0.01,0.91-0.24,1.1-1.12,1.1c-15.51-0.03-31.01-0.03-46.52,0 c-0.9,0-1.1-0.22-1.1-1.11C0.03,44.68,0.03,22.9,0,1.11C0,0.23,0.19-0.01,1.1,0C6.7,0.05,12.29,0.05,17.89,0 c0.9-0.01,1.11,0.21,1.11,1.11c-0.03,15.32-0.01,30.64-0.05,45.96c0,1.08,0.25,1.36,1.35,1.35c9.39-0.06,18.78-0.05,28.17-0.06 C48.56,48.46,48.65,48.55,48.75,48.65z"/> <path fill="#252C5C" d="M180.59,32.08c1.27,0.46,2.44,0.88,3.51,1.62c2.14,1.49,3.09,3.59,3.23,6.03c0.16,2.9,0.2,5.83,0,8.73 c-0.4,6.06-3.79,10.52-10.2,11.69c-1.11,0.2-2.2,0.22-3.3,0.22c-7.35,0-14.71,0-22.06,0c-1.43,0-1.83-0.39-1.83-1.81 c0-17.08,0-34.15,0-51.23c0-1.59,0.44-2.04,2.02-2.04c7.47,0,14.95-0.18,22.42,0.05c6.34,0.2,11.1,4.1,12.05,10.68 c0.39,2.7,0.33,5.4,0.16,8.08c-0.22,3.55-2,6.23-5.43,7.62C180.99,31.8,180.85,31.92,180.59,32.08z M167.71,36.66 c-2.09,0-3.8,0.01-5.52-0.01c-0.85-0.01-1.22,0.36-1.22,1.22c0.01,3.99,0.01,7.98,0,11.96c0,0.96,0.44,1.47,1.41,1.43 c3.53-0.12,7.07,0.23,10.61-0.22c2.07-0.27,3.56-1.79,3.57-3.91c0.01-2.19,0.01-4.39,0-6.58c0-1.93-1.08-3.23-2.94-3.67 C171.54,36.4,169.44,36.82,167.71,36.66z M160.98,20.98c0,1.79,0.01,3.59-0.01,5.38c-0.01,0.86,0.38,1.21,1.23,1.21 c3.03-0.01,6.07,0.04,9.1-0.02c2.61-0.05,3.7-1.06,4.34-3.64c0.42-1.69,0.33-3.42,0.16-5.08c-0.32-2.97-1.37-4.17-4.83-4.2 c-2.91-0.02-5.83,0.03-8.74-0.02c-0.95-0.02-1.25,0.36-1.24,1.23C160.99,17.55,160.98,19.26,160.98,20.98z"/> <path fill="#252C5C" d="M101.01,32.99c0-4.91-0.04-9.81,0.01-14.72c0.03-2.84,0.69-5.54,2.38-7.9c1.97-2.75,4.69-4.39,7.99-4.81 c5.27-0.67,10.59-0.39,15.87-0.2c4.27,0.16,7.87,2.13,10.11,5.98c0.9,1.54,1.42,3.28,1.52,5.07c0.57,10.39,0.21,20.78,0.2,31.17 c0,3.59-1.17,6.97-3.99,9.51c-1.52,1.38-3.28,2.34-5.29,2.77c-0.71,0.15-0.99,0.21-0.51,1c1.55,2.54,3.02,5.13,4.49,7.71 c0.32,0.56,0.65,1.14,0.58,1.87c-0.09,0.89-0.5,1.4-1.4,1.4c-2.36,0.01-4.71,0.03-7.07,0c-1.89-0.03-2.73-1.43-3.53-2.84 c-1.55-2.72-3.13-5.42-4.65-8.16c-0.28-0.5-0.61-0.49-1.04-0.49c-2.48,0-4.95,0.14-7.36-0.71c-4.76-1.68-7.37-5.07-8.04-9.98 c-0.6-4.39-0.12-8.81-0.25-13.22C100.98,35.31,101.01,34.15,101.01,32.99z M112.28,32.95c0,4.51,0.05,9.02-0.02,13.53 c-0.04,2.52,1.39,4.34,4.3,4.32c2.24-0.02,4.48,0,6.72,0c3.07,0,4.16-0.85,4.8-3.78c0.07-0.34,0.03-0.71,0.03-1.07 c0-8.66-0.01-17.32,0.01-25.98c0-0.84-0.14-1.65-0.37-2.42c-0.56-1.91-1.71-2.46-4.13-2.63c-2.19-0.15-4.4-0.04-6.59-0.03 c-2.93,0.01-4.84,1.25-4.77,4.67C112.35,24.01,112.28,28.48,112.28,32.95z"/> <path fill="#252C5C" d="M387.66,54.05c-1.52,2.45-3.73,3.71-6.44,4.27c-1.19,0.25-2.38,0.1-3.56,0.12c-2.32,0.03-4.63,0.1-6.9-0.65 c-4.75-1.57-7.25-4.98-7.77-9.76c-0.7-6.5-0.42-13.05-0.19-19.56c0.19-5.35,2.89-9.23,8.3-11.07c1.74-0.59,3.58-0.83,5.42-0.84 c6.63-0.04,13.27-0.02,19.9-0.01c1.64,0,2.27,0.63,2.27,2.26c0,14.52,0.11,29.05-0.05,43.57c-0.07,5.95-3.64,10.7-10.07,11.92 c-2.8,0.53-5.59,0.44-8.4,0.45c-3.96,0.02-7.91,0.01-11.87,0c-1.84,0-2.23-0.4-2.23-2.19c0-1.64,0.06-3.27-0.02-4.91 c-0.08-1.89,0.25-2.7,2.81-2.72c4.76-0.03,9.51-0.07,14.27,0.01c3.56,0.06,4.3-1.91,4.49-4.43 C387.79,58.37,387.66,56.2,387.66,54.05z M387.66,35.28c0-2.47-0.03-4.95,0.01-7.42c0.02-1.05-0.22-1.57-1.45-1.52 c-2.67,0.1-5.36,0.09-8.03,0.01c-3.18-0.09-4.33,1.69-4.41,4.26c-0.14,4.58-0.1,9.18-0.01,13.76c0.04,1.82,0.53,3.66,2.65,4.13 c1.96,0.44,3.97,0.52,6,0.25c1.77-0.24,3.3-0.73,4.3-2.39c0.72-1.19,0.87-2.5,0.92-3.79C387.72,40.15,387.66,37.71,387.66,35.28z"/> <path fill="#5E4595" d="M48.75,48.65c-0.09-0.09-0.19-0.19-0.28-0.28c0-9.37-0.01-18.75,0.03-28.12c0-0.96-0.31-1.08-1.15-1.08 c-6.67,0.03-13.35,0-20.02,0.04c-0.92,0.01-1.2-0.21-1.19-1.16c0.05-5.66,0.04-11.33,0-16.99C26.14,0.19,26.39,0,27.21,0.01 c13.07,0.03,26.13,0.03,39.2,0c0.87,0,1.03,0.26,1.03,1.07c-0.02,15.52-0.03,31.03,0,46.55c0,0.87-0.27,1.03-1.08,1.03 C60.5,48.62,54.62,48.64,48.75,48.65z"/> <path fill="#252C5C" d="M220.7,55.68c-1.71,3.42-4.47,4.62-7.76,4.66c-2.64,0.03-5.28,0.27-7.92-0.41c-4.71-1.23-7.54-4.22-8.77-8.81 c-0.38-1.43-0.51-2.92-0.51-4.42c0.03-5.79-0.09-11.57,0.05-17.36c0.08-3.54,1.15-6.83,3.85-9.34c2.09-1.93,4.66-2.96,7.46-3.18 c7.4-0.59,14.83-0.13,22.24-0.26c1.95-0.04,2.43,0.75,2.42,2.42c-0.06,13.17-0.03,26.33-0.03,39.5c0,1.53-0.36,1.9-1.85,1.91 c-2.52,0-5.04,0.01-7.55,0c-1.14,0-1.62-0.49-1.63-1.65c0-0.48,0-0.96,0-1.44C220.7,56.85,220.7,56.41,220.7,55.68z M220.7,36.36 c0-2.95-0.03-5.9,0.02-8.85c0.01-0.9-0.29-1.17-1.17-1.15c-3,0.04-5.99,0.01-8.99,0.02c-1.68,0.01-2.75,0.86-3.32,2.42 c-0.27,0.75-0.42,1.54-0.41,2.27c0.08,5.4-0.33,10.81,0.19,16.21c0.17,1.74,0.94,2.95,2.71,3.29c2.23,0.44,4.48,0.34,6.71,0.05 c1.44-0.19,2.7-0.81,3.38-2.19c0.53-1.08,0.89-2.22,0.89-3.45C220.7,42.1,220.7,39.23,220.7,36.36z"/> <path fill="#252C5C" d="M254.69,58.22c-1.15,0-2.27,0-3.39,0c-2.3,0-2.92-0.46-3.48-2.6c-2.41-9.27-4.8-18.54-7.22-27.8 c-0.8-3.06-1.68-6.1-2.54-9.14c-0.36-1.29,0.13-2.09,1.46-2.11c2.56-0.04,5.12-0.04,7.67,0c1.15,0.01,1.96,0.78,2.27,2.1 c1.46,6.37,2.88,12.75,4.35,19.12c0.94,4.06,1.95,8.11,2.95,12.27c1.43-6.06,2.84-12,4.22-17.94c1.06-4.56,2.11-9.11,3.11-13.68 c0.27-1.22,0.99-1.83,2.14-1.85c2.44-0.06,4.88-0.05,7.31-0.01c1.62,0.03,2.13,0.81,1.73,2.39c-1.81,7.11-3.68,14.21-5.38,21.35 c-1.76,7.4-3.5,14.81-5.59,22.13c-0.96,3.39-2.66,6.46-5.31,8.92c-2.13,1.98-4.7,2.94-7.52,3.38c-2.81,0.44-5.64,0.19-8.46,0.23 c-1.45,0.03-1.93-0.47-1.94-1.87c-0.01-2.04-0.01-4.07,0-6.11c0.01-1.34,0.51-1.81,1.86-1.84c2.2-0.05,4.4,0.11,6.59-0.44 c2.4-0.61,3.64-2.25,4.48-4.36C254.3,59.68,254.46,58.96,254.69,58.22z"/> <path fill="#252C5C" d="M319.05,39.35c0-3.84-0.06-6.95,0.01-10.06c0.15-6.2,3.61-11.16,10.21-12.29c4.28-0.74,8.56-0.49,12.83-0.37 c3.01,0.09,5.93,0.88,8.43,2.92c2.4,1.96,3.63,4.46,4.27,7.37c0.28,1.26,0.22,2.51,0.23,3.77c0.01,5.47-0.03,10.93,0.01,16.4 c0.03,3.65-0.91,6.98-3.48,9.6c-1.8,1.84-4.1,3.09-6.73,3.44c-4.44,0.59-8.91,0.17-13.36,0.23c-2.53,0.03-4.86-0.71-7.05-2.08 c-3.03-1.91-4.55-4.72-5.12-8.1C318.67,46.34,319.25,42.47,319.05,39.35z M330.09,38.39c0,2.87-0.02,5.74,0.01,8.61 c0.01,1.2,0.32,2.32,1.35,3.1c0.83,0.63,1.82,0.56,2.77,0.74c2.38,0.46,4.74,0.21,7.07-0.15c1.89-0.29,2.95-1.85,2.93-4.33 c-0.04-5.6,0.31-11.21-0.2-16.81c-0.17-1.83-1.77-2.98-3.06-3.21c-2.22-0.4-4.44-0.28-6.65-0.17c-2.54,0.12-4.33,1.21-4.23,4.44 C330.15,33.2,330.09,35.79,330.09,38.39z"/> <path fill="#252C5C" d="M282.11,32.83c0-8.3,0-16.59,0-24.89c0-2.32,0.32-2.65,2.65-2.65c2.24,0,4.48,0.02,6.71-0.01 c1.49-0.02,1.7,0.5,1.91,1.79c0.04,0.27,0.01,0.56,0.01,0.84c0,13.72,0.01,27.44-0.02,41.17c0,1.49,0.42,1.74,1.69,1.73 c5.67-0.04,11.35-0.02,17.02-0.02c1.49,0,2.09,0.3,2.12,1.68c0.05,2.25,0.29,4.5-0.15,6.76c-0.16,0.83-0.49,1.15-1.31,1.15 c-9.71-0.01-19.42-0.02-29.13,0c-1.32,0-1.42-0.95-1.48-1.83c-0.09-1.27-0.02-2.55-0.02-3.83 C282.11,47.43,282.11,40.13,282.11,32.83z"/> <path fill="#252C5C" d="M428.19,39.29c0-3.59-0.07-6.47,0.02-9.33c0.1-3.15,0.79-6.12,2.78-8.72c1.84-2.4,4.32-3.66,7.16-4.19 c5.27-0.99,10.62-0.35,15.94-0.49c0.61-0.02,1.22-0.04,1.86,0.16c0.88,0.28,1.23,0.83,1.25,1.61c0.05,2.07,0.04,4.15,0.01,6.22 c-0.02,1.26-0.73,1.8-2.28,1.8c-3.8,0.01-7.59-0.01-11.39,0.01c-2.47,0.01-3.85,1.2-4.09,3.77c-0.49,5.24-0.16,10.49-0.17,15.74 c0,1.54,0.16,3.31,1.83,4.27c0.79,0.46,1.65,0.64,2.56,0.64c3.76,0,7.51,0,11.27,0c1.64,0,2.28,0.64,2.28,2.27 c0,1.75,0,3.51,0,5.26c0,1.63-0.4,2.04-1.98,2.04c-4.99,0-9.99,0.12-14.98-0.03c-5.5-0.16-10.52-3.8-11.62-9.68 C427.88,46.63,428.44,42.6,428.19,39.29z"/> <path fill="#252C5C" d="M408.29,38.57c0-6.58,0-13.17,0-19.75c0-1.63,0.64-2.27,2.28-2.27c2.2,0,4.4-0.01,6.59,0 c1.78,0.01,2.39,0.62,2.39,2.4c0,13.09,0,26.17,0,39.26c0,1.77-0.39,2.16-2.11,2.16c-2.36,0-4.72,0-7.07,0 c-1.7,0-2.09-0.38-2.09-2.06C408.28,51.73,408.29,45.15,408.29,38.57z"/> <path fill="#57B896" d="M65.51,56.06c2.76,0,5.51,0.03,8.27-0.02c0.78-0.01,1.11,0.13,1.11,1.02c-0.04,5.66-0.03,11.32-0.01,16.98 c0,0.72-0.18,0.95-0.93,0.95c-5.71-0.03-11.42-0.03-17.13,0c-0.77,0-0.92-0.26-0.92-0.96c0.02-5.66,0.03-11.32,0-16.98 c0-0.77,0.19-1.02,0.99-1.01C59.76,56.09,62.64,56.06,65.51,56.06z"/> <path fill="#252C5C" d="M413.91,11.28c-1.24,0-2.48,0.02-3.72-0.01c-1.18-0.02-1.89-0.74-1.9-1.92c-0.02-2.39-0.01-4.79,0-7.18 c0-1.42,0.62-2.11,2.05-2.14c2.4-0.04,4.8-0.04,7.19,0c1.37,0.03,2,0.66,2.02,2.04c0.04,2.39,0.05,4.79,0,7.18 c-0.03,1.42-0.73,2.02-2.16,2.02C416.23,11.28,415.07,11.28,413.91,11.28z"/> <path fill="#57B896" d="M463.94,55.58c0-1.31,0.04-2.63-0.01-3.94c-0.03-0.7,0.23-0.87,0.89-0.86c2.63,0.03,5.26,0.03,7.9,0 c0.6-0.01,0.84,0.15,0.83,0.8c-0.03,2.67-0.03,5.34,0,8c0.01,0.64-0.22,0.81-0.83,0.8c-2.63-0.03-5.26-0.04-7.9,0.01 c-0.8,0.02-0.91-0.31-0.89-0.98C463.96,58.13,463.94,56.86,463.94,55.58z"/> </g> </svg>