<svg width="139" height="32" viewBox="0 0 139 32" fill="none" xmlns="http://www.w3.org/2000/svg">
<path fill-rule="evenodd" clip-rule="evenodd" d="M16.1781 0.00152377C16.1232 0 16.0682 0 16.0133 0C15.9584 0 15.9035 0 15.8486 0.00152377C7.135 0.0883789 0.0869378 7.12974 0 15.8351C0.0381306 14.4042 0.570434 13.0968 1.43219 12.0759C2.82624 6.90575 6.91079 2.82508 12.0859 1.43235C13.2954 1.10626 14.5659 0.926455 15.8761 0.915789C15.9218 0.914265 15.9676 0.914265 16.0133 0.914265C16.0591 0.914265 16.1049 0.914265 16.1506 0.915789C18.2569 0.970644 20.0537 2.28566 20.8132 4.13248C20.9612 4.49209 21.0695 4.87151 21.1335 5.26769C21.1762 5.5374 21.1991 5.8132 21.1991 6.0951C21.1991 7.27298 20.8041 8.36095 20.1391 9.23103C20.4014 9.39102 20.6531 9.56473 20.8925 9.75368C21.6597 8.73428 22.1142 7.46802 22.1142 6.0951C22.1142 5.99905 22.1115 5.903 22.1074 5.80696C23.7876 6.81756 25.1986 8.23108 26.2055 9.91273C26.1039 9.90835 26.0022 9.90533 25.9006 9.90533C24.5264 9.90533 23.2589 10.3594 22.2385 11.1259C21.993 11.3102 21.7611 11.5128 21.5476 11.7323C20.9604 12.3281 20.4952 13.0458 20.1947 13.8428V13.8443C19.9385 14.5147 19.7997 15.2401 19.7997 16.0004C19.7997 18.0783 18.1278 19.7717 16.0568 19.8092L16.0148 19.8091C13.9116 19.8091 12.2018 18.1009 12.2018 15.9997C12.2018 16.76 12.063 17.4853 11.8068 18.1558V18.1573C12.2597 19.035 12.9766 19.7512 13.8551 20.2037H13.8567C14.5034 20.5359 15.237 20.7234 16.0148 20.7234C17.3601 20.7234 18.5864 21.2369 19.5076 22.078C19.7379 22.2883 19.9499 22.5199 20.1406 22.7683C20.8056 23.6383 21.2006 24.7263 21.2006 25.9042C21.2006 26.1813 21.1785 26.4525 21.1372 26.7178C21.1271 26.7226 21.117 26.7275 21.1068 26.7323C20.2319 27.1498 19.2973 27.4629 18.3192 27.6569C18.6918 27.1703 18.9128 26.5629 18.9128 25.9041C18.9128 25.0219 18.5162 24.231 17.8909 23.6992C17.386 23.2695 16.7302 23.009 16.0149 23.009C14.7444 23.009 13.5516 22.6691 12.5221 22.0779C12.2506 21.921 11.9898 21.7457 11.7427 21.5553C11.2592 21.1835 10.826 20.7507 10.4539 20.2677C10.2404 20.4871 10.0085 20.6898 9.76297 20.8741C10.161 21.3861 10.6232 21.8478 11.1357 22.2455C11.3751 22.4345 11.6268 22.6082 11.8891 22.7682C12.577 23.1872 13.3335 23.5057 14.1388 23.6992C14.7398 23.8455 15.3682 23.9232 16.0149 23.9232C17.11 23.9232 17.9977 24.8101 17.9977 25.9041C17.9977 26.9982 17.11 27.885 16.0149 27.885C16.1208 27.885 16.2264 27.8836 16.3317 27.8809C16.2171 27.8842 16.1021 27.8858 15.9867 27.8858C14.8916 27.8858 14.0039 26.999 14.0039 25.9049C14.0039 24.8108 14.8916 23.924 15.9867 23.924C15.34 23.924 14.7116 23.8463 14.1106 23.7C13.4853 24.2318 13.0887 25.0226 13.0887 25.9049C13.0887 26.5662 13.3114 27.1757 13.6866 27.6633C14.2159 28.3536 15.0502 28.8001 15.9867 28.8001C17.6827 28.8001 19.304 28.4694 20.7865 27.8675C21.174 27.7121 21.5507 27.5369 21.9167 27.3449C24.2305 26.1335 26.1294 24.2364 27.342 21.9248C26.9759 22.0132 26.5961 22.068 26.2072 22.0878C25.2002 23.7696 23.7891 25.1832 22.1089 26.1938C22.113 26.0973 22.1157 26.0007 22.1157 25.9042C22.1157 24.5313 21.6612 23.265 20.894 22.2456L20.884 22.2322C21.389 21.8379 21.8447 21.3813 22.238 20.8757C23.2582 21.6417 24.5253 22.0955 25.8991 22.0955C26.0013 22.0955 26.1035 22.0924 26.2056 22.0879C26.5946 22.068 26.9744 22.0132 27.3404 21.9248C28.6216 21.614 29.7442 20.9008 30.5663 19.9241C31.428 18.9032 31.9603 17.5958 31.9984 16.1649C32 16.1102 32 16.0554 32 16.0006V16.0004V16.0002C32 15.9454 32 15.8906 31.9984 15.8358C31.9118 7.15936 24.9101 0.13585 16.2365 0.00335389L16.1781 0.00152377ZM21.5476 20.2685C21.1796 20.7461 20.752 21.1746 20.275 21.5436C19.681 20.9625 18.9669 20.5019 18.1746 20.2037H18.173L18.1585 20.1982C19.0315 19.7453 19.7438 19.0317 20.1947 18.1581V18.1566C20.5272 17.5105 20.7148 16.7776 20.7148 16.0004C20.7148 14.6565 21.2288 13.4313 22.0707 12.511C22.2812 12.2809 22.5131 12.0691 22.7617 11.8786C23.6326 11.2143 24.7216 10.8196 25.9006 10.8196C26.1822 10.8196 26.4577 10.8424 26.7272 10.8849L26.7273 10.8851C27.1496 11.7684 27.4652 12.7127 27.6589 13.7012C27.1711 13.3272 26.5617 13.1052 25.9006 13.1052C25.0175 13.1052 24.2259 13.5014 23.6936 14.1262C23.2635 14.6305 23.0027 15.2858 23.0027 16.0004C23.0027 17.2697 22.6625 18.4613 22.0708 19.4899C21.9137 19.7611 21.7383 20.0217 21.5476 20.2685ZM25.9006 14.0195C26.9669 14.0195 27.8366 14.8603 27.8816 15.9146C27.8818 15.9432 27.8819 15.9718 27.8819 16.0004C27.8819 17.0944 26.9942 17.9813 25.8991 17.9813C24.8275 17.9813 23.9545 17.1321 23.9175 16.0705C23.9177 16.0472 23.9178 16.0238 23.9178 16.0004C23.9178 14.9063 24.8055 14.0195 25.9006 14.0195ZM22.7617 20.1222C23.1809 19.4354 23.4995 18.6801 23.6933 17.876C24.2256 18.4999 25.0166 18.8955 25.8991 18.8955C26.561 18.8955 27.1711 18.6731 27.6592 18.2982C28.3501 17.7695 28.797 16.936 28.797 16.0004C28.797 14.3059 28.466 12.6862 27.8636 11.205C27.708 10.818 27.5326 10.4416 27.3404 10.0759C26.1335 7.7752 24.2467 5.88506 21.9477 4.67295L21.9434 4.65513C21.6338 3.38156 20.9256 2.26488 19.9554 1.44469C25.1102 2.84838 29.1761 6.92077 30.5663 12.0767C30.8927 13.285 31.0726 14.5543 31.0833 15.8632C31.0848 15.9089 31.0848 15.9547 31.0848 16.0004C31.0848 16.0461 31.0848 16.0918 31.0833 16.1375C31.0284 18.2418 29.7121 20.0368 27.8636 20.7957C27.5036 20.9435 27.1238 21.0517 26.7273 21.1157C26.4573 21.1583 26.1812 21.1812 25.8991 21.1812C24.7205 21.1812 23.6319 20.7869 22.7612 20.123L22.7617 20.1222ZM20.1932 13.8442V13.8427C19.7403 12.965 19.0234 12.2488 18.1449 11.7963H18.1433C17.4967 11.4641 16.763 11.2766 15.9852 11.2766C14.6399 11.2766 13.4136 10.7631 12.4924 9.92201C12.2621 9.71173 12.0501 9.48012 11.8594 9.23174C11.1944 8.36167 10.7994 7.27369 10.7994 6.09581C10.7994 5.81873 10.8215 5.54752 10.8628 5.28221L10.8932 5.26769C11.7681 4.85023 12.7027 4.53711 13.6808 4.34307C13.3082 4.82973 13.0872 5.4371 13.0872 6.09588C13.0872 6.97814 13.4838 7.76898 14.1091 8.30078C14.614 8.73048 15.2698 8.99105 15.9851 8.99105C17.2556 8.99105 18.4484 9.33085 19.4779 9.92207C19.7494 10.079 20.0102 10.2543 20.2573 10.4447C20.7408 10.8165 21.174 11.2493 21.5461 11.7323C21.7596 11.5129 21.9915 11.3102 22.237 11.1259C21.8389 10.6139 21.3768 10.1522 20.8643 9.75446C20.6249 9.56551 20.3732 9.3918 20.1109 9.2318C19.423 8.81277 18.6665 8.4943 17.8612 8.30078C17.2602 8.1545 16.6318 8.07678 15.9851 8.07678C14.89 8.07678 14.0023 7.18995 14.0023 6.09588C14.0023 5.00181 14.89 4.11497 15.9851 4.11497C15.8785 4.11497 15.7722 4.11637 15.6662 4.11915C15.7815 4.11585 15.8972 4.11419 16.0133 4.11419C17.1085 4.11419 17.9961 5.00103 17.9961 6.0951C17.9961 7.18917 17.1085 8.076 16.0133 8.076C16.66 8.076 17.2884 8.15372 17.8894 8.3C18.5147 7.7682 18.9113 6.97736 18.9113 6.0951C18.9113 5.43378 18.6886 4.82427 18.3134 4.33666C17.7841 3.64639 16.9498 3.19993 16.0133 3.19993C14.3173 3.19993 12.696 3.53059 11.2135 4.13248C10.826 4.2879 10.4493 4.46314 10.0833 4.65513C7.7695 5.86653 5.87059 7.76363 4.65804 10.0752C5.02409 9.98682 5.40387 9.93196 5.7928 9.91215C6.79978 8.2304 8.21087 6.8168 9.89115 5.80616C9.88698 5.90271 9.88425 5.99926 9.88425 6.09581C9.88425 7.46874 10.3388 8.73499 11.106 9.7544L11.116 9.76776C10.611 10.1621 10.1553 10.6187 9.76201 11.1243C8.7418 10.3583 7.47472 9.90454 6.10093 9.90454C5.99874 9.90454 5.89655 9.90758 5.79436 9.91216C5.40543 9.93196 5.02565 9.98682 4.65959 10.0752C3.3784 10.386 2.25584 11.0992 1.43374 12.0759C0.57199 13.0968 0.0396864 14.4042 0.00155573 15.8351C3.05045e-05 15.8899 3.05045e-05 15.9448 3.05045e-05 15.9996C3.05045e-05 16.0545 3.05045e-05 16.1093 0.00155573 16.1642C0.0882061 24.8407 7.09003 31.8643 15.7638 31.9967L15.8219 31.9985C15.8768 32 15.9318 32 15.9867 32C16.0416 32 16.0965 32 16.1514 31.9985C24.865 31.9116 31.9131 24.8703 32 16.1649C31.9619 17.5958 31.4296 18.9032 30.5678 19.9241C29.1738 25.0943 25.0892 29.1749 19.9141 30.5677C18.7046 30.8937 17.4341 31.0735 16.1239 31.0842C16.0782 31.0857 16.0324 31.0857 15.9867 31.0857C15.9409 31.0857 15.8951 31.0857 15.8494 31.0842C13.7431 31.0294 11.9463 29.7143 11.1868 27.8675C11.0388 27.5079 10.9305 27.1285 10.8665 26.7323C10.8238 26.4626 10.8009 26.1868 10.8009 25.9049C10.8009 24.727 11.1959 23.639 11.8609 22.769C11.5986 22.609 11.3469 22.4353 11.1075 22.2463C10.3403 23.2657 9.88576 24.532 9.88576 25.9049C9.88576 26.0009 9.88846 26.097 9.89259 26.193C8.21242 25.1824 6.80141 23.7689 5.79446 22.0873C5.89611 22.0917 5.99777 22.0947 6.09942 22.0947C7.47365 22.0947 8.74111 21.6406 9.76149 20.8741C10.007 20.6898 10.2389 20.4872 10.4524 20.2677C11.0396 19.6719 11.5048 18.9542 11.8053 18.1572V18.1557C12.0615 17.4853 12.2003 16.7599 12.2003 15.9996C12.2003 13.9217 13.8722 12.2283 15.9432 12.1908L15.9852 12.1909C18.0884 12.1909 19.7982 13.8991 19.7982 16.0003C19.7982 15.24 19.937 14.5147 20.1932 13.8442ZM10.0523 27.3271C7.75326 26.1149 5.86646 24.2248 4.65959 21.9241C4.46741 21.5584 4.29201 21.182 4.13644 20.795C3.53398 19.3138 3.203 17.6941 3.203 15.9996C3.203 15.064 3.64989 14.2305 4.34082 13.7018C4.82889 13.3269 5.43898 13.1045 6.10093 13.1045C6.98337 13.1045 7.77444 13.5001 8.30673 14.124C8.50047 13.3199 8.81912 12.5646 9.23832 11.8778L9.23878 11.877C8.36806 11.2131 7.27945 10.8188 6.10093 10.8188C5.81876 10.8188 5.5427 10.8417 5.27273 10.8843C4.87617 10.9483 4.49639 11.0565 4.13644 11.2043C2.28787 11.9632 0.971599 13.7582 0.916691 15.8625C0.915166 15.9082 0.915166 15.9539 0.915166 15.9996C0.915166 16.0453 0.915166 16.0911 0.916691 16.1368C0.927367 17.4457 1.10734 18.715 1.43374 19.9234C2.82395 25.0792 6.8898 29.1516 12.0446 30.5553C11.0744 29.7351 10.3662 28.6184 10.0566 27.3449L10.0523 27.3271ZM5.27283 21.1151C5.54228 21.1576 5.81781 21.1804 6.09942 21.1804C7.27842 21.1804 8.36743 20.7857 9.23833 20.1214C9.48695 19.9309 9.71878 19.7191 9.92926 19.489C10.7712 18.5687 11.2852 17.3435 11.2852 15.9996C11.2852 15.2224 11.4728 14.4895 11.8053 13.8434V13.8419C12.2562 12.9683 12.9685 12.2547 13.8415 11.8018L13.827 11.7963H13.8254C13.0331 11.4981 12.319 11.0375 11.725 10.4564C11.248 10.8254 10.8204 11.2539 10.4524 11.7315C10.2617 11.9783 10.0863 12.2389 9.92924 12.5101C9.33746 13.5387 8.99733 14.7303 8.99733 15.9996C8.99733 16.7142 8.73652 17.3695 8.30641 17.8738C7.7741 18.4986 6.98251 18.8948 6.09941 18.8948C5.43826 18.8948 4.82885 18.6728 4.34108 18.2988C4.53481 19.2873 4.85043 20.2316 5.27273 21.1149L5.27283 21.1151ZM4.11844 16.0854C4.16343 17.1397 5.03309 17.9805 6.09941 17.9805C7.19452 17.9805 8.0822 17.0937 8.0822 15.9996C8.0822 15.9762 8.0823 15.9528 8.0825 15.9295C8.04552 14.8679 7.17254 14.0187 6.10093 14.0187C5.00582 14.0187 4.11814 14.9056 4.11814 15.9996C4.11814 16.0283 4.11824 16.0569 4.11844 16.0854Z" fill="#1F1F30"/>
<path fill-rule="evenodd" clip-rule="evenodd" d="M44.2461 10.1708H47.3981L50.3421 18.2188H50.3901L53.3021 10.1708H56.4701V21.4988H54.4701V12.3948H54.4381L50.9981 21.4988H49.5901L46.1981 12.3948H46.1661V21.4988H44.2461V10.1708ZM61.9883 10.1708H69.4923V11.9308H64.0043V14.8108H69.2043V16.5068H64.0043V19.7068H69.7803V21.4988H61.9883V10.1708ZM78.4345 15.0508C78.7225 15.0508 79.0105 15.0295 79.2985 14.9868C79.5865 14.9441 79.8452 14.8641 80.0745 14.7468C80.3039 14.6295 80.4932 14.4615 80.6425 14.2428C80.7919 14.0241 80.8665 13.7441 80.8665 13.4028C80.8665 13.0935 80.7972 12.8401 80.6585 12.6428C80.5199 12.4455 80.3439 12.2881 80.1305 12.1708C79.9172 12.0535 79.6745 11.9735 79.4025 11.9308C79.1305 11.8881 78.8665 11.8668 78.6105 11.8668H76.7865V15.0508H78.4345ZM74.7705 10.1708H78.7065C79.2399 10.1708 79.7572 10.2268 80.2585 10.3388C80.7599 10.4508 81.2052 10.6348 81.5945 10.8908C81.9839 11.1468 82.2959 11.4828 82.5305 11.8988C82.7652 12.3148 82.8825 12.8215 82.8825 13.4188C82.8825 14.2401 82.6505 14.9095 82.1865 15.4268C81.7225 15.9441 81.0905 16.2935 80.2905 16.4748L83.3145 21.4988H80.8825L78.2585 16.6988H76.7865V21.4988H74.7705V10.1708ZM96.0328 12.8268C95.7341 12.4215 95.3448 12.1255 94.8648 11.9388C94.3848 11.7521 93.9154 11.6588 93.4568 11.6588C92.8701 11.6588 92.3368 11.7655 91.8568 11.9788C91.3768 12.1921 90.9634 12.4855 90.6168 12.8588C90.2701 13.2321 90.0034 13.6695 89.8168 14.1708C89.6301 14.6721 89.5368 15.2161 89.5368 15.8028C89.5368 16.4215 89.6274 16.9868 89.8088 17.4988C89.9901 18.0108 90.2488 18.4508 90.5848 18.8188C90.9208 19.1868 91.3234 19.4721 91.7928 19.6748C92.2621 19.8775 92.7901 19.9788 93.3768 19.9788C93.9848 19.9788 94.5234 19.8588 94.9928 19.6188C95.4621 19.3788 95.8408 19.0615 96.1288 18.6668L97.7448 19.8028C97.2434 20.4321 96.6301 20.9201 95.9048 21.2668C95.1794 21.6135 94.3314 21.7868 93.3608 21.7868C92.4754 21.7868 91.6621 21.6401 90.9208 21.3468C90.1794 21.0535 89.5421 20.6428 89.0088 20.1148C88.4754 19.5868 88.0594 18.9575 87.7608 18.2268C87.4621 17.4961 87.3128 16.6882 87.3128 15.8028C87.3128 14.8961 87.4701 14.0775 87.7848 13.3468C88.0994 12.6161 88.5314 11.9948 89.0808 11.4828C89.6301 10.9708 90.2781 10.5761 91.0248 10.2988C91.7714 10.0215 92.5821 9.88281 93.4568 9.88281C93.8194 9.88281 94.1981 9.91748 94.5928 9.98681C94.9874 10.0561 95.3661 10.1628 95.7288 10.3068C96.0914 10.4508 96.4328 10.6295 96.7528 10.8428C97.0728 11.0561 97.3448 11.3121 97.5688 11.6108L96.0328 12.8268ZM111.039 17.3388C111.039 18.0215 110.922 18.6375 110.687 19.1868C110.452 19.7361 110.132 20.2028 109.727 20.5868C109.322 20.9708 108.842 21.2668 108.287 21.4748C107.732 21.6828 107.13 21.7868 106.479 21.7868C105.828 21.7868 105.226 21.6828 104.671 21.4748C104.116 21.2668 103.634 20.9708 103.223 20.5868C102.812 20.2028 102.492 19.7361 102.263 19.1868C102.034 18.6375 101.919 18.0215 101.919 17.3388V10.1708H103.935V17.2588C103.935 17.5895 103.978 17.9175 104.063 18.2428C104.148 18.5681 104.29 18.8588 104.487 19.1148C104.684 19.3708 104.946 19.5788 105.271 19.7388C105.596 19.8988 105.999 19.9788 106.479 19.9788C106.959 19.9788 107.362 19.8988 107.687 19.7388C108.012 19.5788 108.274 19.3708 108.471 19.1148C108.668 18.8588 108.81 18.5681 108.895 18.2428C108.98 17.9175 109.023 17.5895 109.023 17.2588V10.1708H111.039V17.3388ZM120.125 15.0508C120.413 15.0508 120.701 15.0295 120.989 14.9868C121.277 14.9441 121.536 14.8641 121.765 14.7468C121.995 14.6295 122.184 14.4615 122.333 14.2428C122.483 14.0241 122.557 13.7441 122.557 13.4028C122.557 13.0935 122.488 12.8401 122.349 12.6428C122.211 12.4455 122.035 12.2881 121.821 12.1708C121.608 12.0535 121.365 11.9735 121.093 11.9308C120.821 11.8881 120.557 11.8668 120.301 11.8668H118.477V15.0508H120.125ZM116.461 10.1708H120.397C120.931 10.1708 121.448 10.2268 121.949 10.3388C122.451 10.4508 122.896 10.6348 123.285 10.8908C123.675 11.1468 123.987 11.4828 124.221 11.8988C124.456 12.3148 124.573 12.8215 124.573 13.4188C124.573 14.2401 124.341 14.9095 123.877 15.4268C123.413 15.9441 122.781 16.2935 121.981 16.4748L125.005 21.4988H122.573L119.949 16.6988H118.477V21.4988H116.461V10.1708ZM132.171 16.5868L127.915 10.1708H130.379L133.227 14.9388L136.107 10.1708H138.443L134.187 16.5868V21.4988H132.171V16.5868Z" fill="#1F1F30"/>
</svg>