<?xml version="1.0" encoding="UTF-8"?>
<svg width="84px" height="80px" viewBox="0 0 84 80" version="1.1" xmlns="http://www.w3.org/2000/svg" xmlns:xlink="http://www.w3.org/1999/xlink">
    <title>affiliated</title>
    <g id="Website" stroke="none" stroke-width="1" fill="none" fill-rule="evenodd">
        <g id="Affiliates" transform="translate(-55.000000, -897.000000)" fill="#6231BB" fill-rule="nonzero">
            <path d="M109.688525,897.221285 C111.038033,897.659318 112.121311,898.724236 112.585574,900.067187 L116.11082,910.295383 L126.925246,910.493416 C128.344262,910.519646 129.689836,911.219974 130.526557,912.367515 C131.363279,913.51899 131.61377,915.016695 131.199344,916.374072 L128.053115,926.721613 L136.678689,933.240957 C137.811803,934.096039 138.489836,935.454728 138.489836,936.875055 C138.489836,938.295383 137.813115,939.654072 136.678689,940.509154 L128.051803,947.02981 L131.199344,957.379974 C131.61377,958.736039 131.361967,960.233744 130.525246,961.383908 C129.691148,962.531449 128.346885,963.233088 126.926557,963.260629 L116.11082,963.457351 L112.585574,973.685547 C112.121311,975.028498 111.036721,976.093416 109.687213,976.53276 C109.23082,976.680957 108.758689,976.755711 108.28,976.755711 C107.338361,976.755711 106.434754,976.46981 105.66623,975.930793 L96.8032787,969.730137 L87.9377049,975.932105 C86.7731148,976.746531 85.2701639,976.96817 83.9193443,976.53276 C82.5685246,976.093416 81.4852459,975.02981 81.0209836,973.686859 L77.4957377,963.457351 L66.6813115,963.260629 C65.2609836,963.233088 63.9154098,962.531449 63.0813115,961.385219 C62.2459016,960.233744 61.9940984,958.736039 62.4072131,957.379974 L65.5560656,947.02981 L56.9265574,940.510465 C55.7934426,939.655383 55.1180328,938.296695 55.1180328,936.876367 C55.1180328,935.456039 55.7947541,934.097351 56.9278689,933.242269 L65.5560656,926.721613 L62.4072131,916.371449 C61.9940984,915.014072 62.2459016,913.516367 63.0813115,912.367515 C63.9167213,911.218662 65.2622951,910.517023 66.682623,910.492105 L77.4970492,910.294072 L81.0236066,900.067187 C81.4865574,898.722924 82.5711475,897.658006 83.9232787,897.219974 C85.2727869,896.783252 86.7770492,897.00358 87.9403279,897.820629 L96.8032787,904.023908 L105.667541,897.820629 C106.838689,897.006203 108.337705,896.781941 109.688525,897.221285 Z M107.920656,901.044236 L97.9298361,908.035711 C97.2518033,908.509154 96.3521311,908.509154 95.6740984,908.035711 L85.6806557,901.042924 C85.5770492,900.970793 85.4511475,900.93276 85.3252459,900.93276 C85.2609836,900.93276 85.1967213,900.943252 85.1337705,900.962924 C84.9501639,901.021941 84.8032787,901.167515 84.7403279,901.34981 L80.7652459,912.877678 C80.4963934,913.659318 79.7672131,914.189154 78.9409836,914.20358 L66.7508197,914.426531 C66.5580328,914.430465 66.3744262,914.526203 66.2603279,914.682269 C66.1462295,914.839646 66.1121311,915.042924 66.1685246,915.227842 L69.717377,926.892105 C69.957377,927.681613 69.6793443,928.536695 69.0209836,929.033744 L59.2963934,936.383252 C59.1416393,936.499974 59.0498361,936.684892 59.0498361,936.877678 C59.0498361,937.070465 59.1416393,937.256695 59.2963934,937.372105 L69.0209836,944.721613 C69.6793443,945.218662 69.957377,946.073744 69.717377,946.863252 L66.1685246,958.527515 C66.1121311,958.712433 66.1462295,958.917023 66.2616393,959.0744 C66.3744262,959.229154 66.5580328,959.32358 66.7521311,959.327515 L78.9409836,959.550465 C79.7672131,959.566203 80.4963934,960.096039 80.7652459,960.876367 L84.7390164,972.404236 C84.8019672,972.587842 84.9501639,972.732105 85.135082,972.792433 C85.317377,972.851449 85.5219672,972.822312 85.6806557,972.70981 L95.6754098,965.717023 C96.3534426,965.24358 97.2531148,965.24358 97.9311475,965.717023 L107.92459,972.708498 C108.083279,972.821285 108.295738,972.844892 108.474098,972.791121 C108.656393,972.730793 108.80459,972.586531 108.867541,972.401613 L112.841311,960.875055 C113.110164,960.094728 113.839344,959.564892 114.665574,959.549154 L126.855738,959.326203 C127.048525,959.322269 127.232131,959.227842 127.344918,959.071777 C127.461639,958.913088 127.494426,958.715055 127.438033,958.527515 L123.88918,946.861941 C123.647869,946.072433 123.925902,945.217351 124.584262,944.720301 L134.308852,937.370793 C134.463607,937.254072 134.55541,937.069154 134.55541,936.876367 C134.55541,936.68358 134.463607,936.498662 134.308852,936.383252 C134.308852,936.383252 134.307541,936.381941 134.307541,936.381941 L124.584262,929.032433 C123.925902,928.535383 123.647869,927.680301 123.887869,926.890793 L127.43541,915.226531 C127.493115,915.040301 127.459016,914.837023 127.344918,914.679646 C127.23082,914.522269 127.051148,914.429154 126.854426,914.425219 L114.664262,914.202269 C113.838033,914.187842 113.108852,913.658006 112.84,912.876367 L108.86623,901.348498 C108.803279,901.166203 108.655082,901.020629 108.470164,900.961613 C108.286557,900.901285 108.080656,900.93276 107.920656,901.044236 Z M96.8032787,913.739318 C109.561311,913.739318 119.942951,924.119646 119.942951,936.87899 C119.941639,949.637023 109.561311,960.016039 96.8032787,960.016039 C84.0439344,960.016039 73.664918,949.637023 73.664918,936.87899 C73.664918,924.119646 84.0452459,913.739318 96.8032787,913.739318 Z M96.8032787,917.673744 C86.2144262,917.673744 77.5993443,926.288826 77.5993443,936.87899 C77.5993443,947.467842 86.2144262,956.081613 96.8032787,956.081613 C107.392131,956.081613 116.008525,947.467842 116.008525,936.87899 C116.007213,926.288826 107.392131,917.673744 96.8032787,917.673744 Z M103.873443,929.410137 C104.75082,928.534072 106.274754,928.534072 107.148197,929.410137 C107.58623,929.84817 107.827541,930.429154 107.827541,931.04817 C107.827541,931.667187 107.58623,932.249482 107.148197,932.687515 L107.148197,932.687515 L95.4904918,944.347842 C95.052459,944.784564 94.4714754,945.025875 93.8104918,945.025875 C93.2006557,945.025875 92.6288525,944.78981 92.197377,944.359646 L92.197377,944.359646 L86.4465574,938.607515 C86.0163934,938.177351 85.7790164,937.605547 85.7790164,936.995711 C85.7790164,936.385875 86.0163934,935.81276 86.4465574,935.382596 C86.8780328,934.951121 87.4498361,934.713744 88.0596721,934.713744 C88.6681967,934.713744 89.2413115,934.951121 89.6701639,935.381285 L89.6701639,935.381285 L93.7868852,939.495383 Z" id="affiliated"></path>
        </g>
    </g>
</svg>