<?xml version="1.0" encoding="UTF-8"?>
<svg width="81px" height="30px" viewBox="0 0 81 30" version="1.1" xmlns="http://www.w3.org/2000/svg" xmlns:xlink="http://www.w3.org/1999/xlink">
  <title>Combined Shape Copy</title>
  <g id="Logo" stroke="none" stroke-width="1" fill="none" fill-rule="evenodd">
    <g id="Artboard" transform="translate(-140.000000, -585.000000)" fill="#D4D4D8" fill-rule="nonzero">
      <path d="M147.609375,585 L157.60949,600 L147.609375,615 L140.109375,615 L150.10949,600 L140.109375,585 L147.609375,585 Z M157.60949,585 L177.609375,615 L170.109375,615 L163.859605,605.625172 L157.60949,615 L150.10949,615 L160.109605,600 L150.10949,585 L157.60949,585 Z M210.10949,585 L190.109605,615 L182.609605,615 L202.60949,585 L210.10949,585 Z M182.609605,601.249885 L182.609605,606.250115 L174.276233,606.250115 L170.943091,601.25023 L182.609605,601.249885 Z M219.611076,593.749885 L219.611076,598.750115 L202.944333,598.74977 L206.277819,593.749885 L219.611076,593.749885 Z M182.609605,593.749885 L182.609605,598.750115 L169.276348,598.750115 L165.942861,593.75023 L182.609605,593.749885 Z M220.384905,585 L220.384905,590.00023 L208.718391,589.999885 L212.051533,585 L220.384905,585 Z" id="Combined-Shape-Copy"></path>
    </g>
  </g>
</svg>
