<?xml version="1.0" encoding="UTF-8"?>
<svg width="81px" height="31px" viewBox="0 0 81 31" version="1.1" xmlns="http://www.w3.org/2000/svg" xmlns:xlink="http://www.w3.org/1999/xlink">
    <title>Combined Shape</title>
    <g id="Website" stroke="none" stroke-width="1" fill="none" fill-rule="evenodd">
        <g id="Homepage" transform="translate(-30.000000, -49.000000)" fill="#000000" fill-rule="nonzero">
            <path d="M37.5,49.5 L47.5001148,64.5 L37.5,79.5 L30,79.5 L40.0001149,64.5 L30,49.5 L37.5,49.5 Z M47.5001149,49.5 L67.5,79.5 L60,79.5 L53.7502297,70.1251723 L47.5001149,79.5 L40.0001149,79.5 L50.0002297,64.5 L40.0001149,49.5 L47.5001149,49.5 Z M100.000115,49.5 L80.0002296,79.5 L72.5002297,79.5 L92.5001148,49.5 L100.000115,49.5 Z M72.5002297,65.7498852 L72.5002297,70.7501148 L64.1668581,70.7501148 L60.8337161,65.7502297 L72.5002297,65.7498852 Z M109.501701,58.2498852 L109.501701,63.2501148 L92.8349577,63.2497703 L96.1684442,58.2498852 L109.501701,58.2498852 Z M72.5002297,58.2498852 L72.5002297,63.2501148 L59.1669729,63.2501148 L55.8334864,58.2502297 L72.5002297,58.2498852 Z M110.27553,49.5 L110.27553,54.5002296 L98.6090163,54.4998851 L101.942158,49.5 L110.27553,49.5 Z" id="Combined-Shape"></path>
        </g>
    </g>
</svg>