<?xml version="1.0" encoding="UTF-8"?>
<svg width="81px" height="81px" viewBox="0 0 81 81" version="1.1" xmlns="http://www.w3.org/2000/svg" xmlns:xlink="http://www.w3.org/1999/xlink">
    <title>join</title>
    <g id="Website" stroke="none" stroke-width="1" fill="none" fill-rule="evenodd">
        <g id="Affiliates" transform="translate(-55.000000, -1756.000000)" fill="#999999" fill-rule="nonzero">
            <path d="M95.2689556,1756.87768 C117.324893,1756.87768 135.268956,1774.82158 135.268956,1796.87768 C135.268956,1818.93377 117.325049,1836.87768 95.2689556,1836.87768 C73.2128618,1836.87768 55.2689556,1818.93377 55.2689556,1796.87768 C55.2689556,1774.82158 73.2128618,1756.87768 95.2689556,1756.87768 Z M131.763331,1802.16596 L125.630831,1804.46362 C125.722549,1805.52971 125.500674,1806.63299 124.926456,1807.62783 C123.602393,1809.9208 120.843956,1810.88033 118.432237,1810.02783 C118.379112,1810.82783 118.146768,1811.62783 117.719737,1812.36752 C116.998331,1813.61674 115.830049,1814.51158 114.429581,1814.88674 C113.751612,1815.06846 113.059268,1815.11752 112.384268,1815.03783 C112.389893,1815.96658 112.156924,1816.90846 111.659893,1817.76924 C110.260674,1820.19252 107.257862,1821.12643 104.757081,1820.00565 C104.695518,1820.78221 104.464424,1821.55721 104.049737,1822.2758 C103.047706,1824.01127 101.223174,1824.98268 99.3498931,1824.98283 C98.4314556,1824.98283 97.5016118,1824.74955 96.6508306,1824.25815 L96.6508306,1824.25815 L91.9014556,1821.51612 C91.2870806,1822.05143 90.5534868,1822.44502 89.7408306,1822.66283 C89.2716118,1822.78862 88.7956743,1822.8508 88.3234868,1822.8508 C87.3861431,1822.8508 86.4625493,1822.60565 85.6319243,1822.12612 C84.6594243,1821.56455 83.9017681,1820.73221 83.4367681,1819.73033 C81.8377056,1820.58955 79.8427056,1820.62768 78.1584868,1819.65502 C77.0848931,1819.03533 76.3037993,1818.10096 75.8639556,1817.03518 C75.5922368,1817.1583 75.3081743,1817.26002 75.0139556,1817.33893 C73.6134868,1817.7144 72.1544243,1817.5233 70.9050493,1816.80221 C69.2095806,1815.8233 68.2433306,1814.06002 68.1994243,1812.23268 C67.1375493,1812.32143 66.0400493,1812.09893 65.0502056,1811.52737 C63.8008306,1810.80596 62.9061431,1809.63768 62.5309868,1808.23721 C62.2119243,1807.04643 62.3034868,1805.81377 62.7809868,1804.70315 L62.7809868,1804.70315 L58.8089556,1802.41002 C61.4861431,1820.12783 76.8159868,1833.75268 95.2689556,1833.75268 C113.806456,1833.75268 129.190518,1820.00221 131.763331,1802.16596 L131.763331,1802.16596 Z M95.8011431,1814.86721 C95.6836431,1815.38065 95.4891118,1815.88533 95.2123931,1816.36471 L95.2123931,1816.36471 L93.7166118,1818.95549 L98.2133306,1821.55158 C99.3077056,1822.1833 100.711768,1821.80721 101.343487,1820.71299 C101.974268,1819.62018 101.599737,1818.21815 100.508956,1817.58533 L100.508956,1817.58533 L100.505518,1817.58315 L100.504893,1817.58283 Z M91.6673931,1811.67205 C91.1409868,1811.36799 90.5241118,1811.2883 89.9297368,1811.44752 C89.3366118,1811.60658 88.8427056,1811.98315 88.5386431,1812.5083 L88.5386431,1812.5083 L88.5373931,1812.51049 L86.3555181,1816.28955 C86.0516118,1816.81596 85.9719243,1817.43299 86.1311431,1818.02705 C86.2903618,1818.62112 86.6678618,1819.11565 87.1942681,1819.41955 C88.2884868,1820.05127 89.6927056,1819.67518 90.3244243,1818.58096 L90.3244243,1818.58096 L92.5059868,1814.80205 C92.8100493,1814.27565 92.8897368,1813.65862 92.7305181,1813.06455 C92.5712993,1812.47049 92.1937993,1811.97596 91.6673931,1811.67205 Z M103.403487,1777.28908 C101.759268,1776.80018 100.609112,1776.68471 99.2405181,1777.47471 L99.2405181,1777.47471 L88.1891118,1783.85518 C87.6536431,1784.16424 87.2695806,1784.66721 87.1077056,1785.27174 C86.9458306,1785.87627 87.0267681,1786.50393 87.3359868,1787.0394 C87.9562993,1788.11393 89.3636431,1788.46018 90.6094243,1787.84487 C92.3331743,1786.9933 95.0298931,1785.78377 96.8769243,1785.14002 C97.0423931,1785.08221 97.2161431,1785.05283 97.3912993,1785.05283 C97.8308306,1785.05283 97.9950493,1785.15174 98.6870806,1785.56799 C99.0014556,1785.75705 99.4572368,1786.03237 100.026456,1786.37643 C101.162081,1787.0633 102.750206,1788.02549 104.567549,1789.12705 C105.305362,1789.57424 105.540987,1790.53502 105.093799,1791.27315 C104.799893,1791.75783 104.284424,1792.0258 103.755987,1792.02596 C103.480049,1792.02596 103.200831,1791.95283 102.947549,1791.7994 C102.380549,1791.45576 101.745374,1791.0708 101.102087,1790.68104 L100.458319,1790.29102 C99.1742743,1789.5132 97.9378618,1788.76483 97.2295806,1788.33799 C95.6134868,1788.95346 93.4683306,1789.91783 91.9930181,1790.64643 C89.2500493,1792.00127 86.0844243,1791.12221 84.6292681,1788.60158 C83.9028618,1787.34346 83.7109868,1785.87346 84.0887993,1784.46299 C84.4667681,1783.05221 85.3678618,1781.87502 86.6262993,1781.14862 L86.6262993,1781.14862 L92.1002056,1777.98815 L91.2103618,1777.4744 C89.8420806,1776.68471 88.6916118,1776.79987 87.0473931,1777.28877 C84.8503618,1777.94237 83.1053618,1778.50518 81.5656743,1779.0019 C74.0289556,1781.43268 72.7962993,1781.65987 62.9698931,1779.10315 C60.0555181,1784.37783 58.3939556,1790.43705 58.3939556,1796.87768 C58.3939556,1797.45033 58.4089556,1798.0194 58.4347368,1798.58549 L58.4347368,1798.58549 L64.3094243,1801.97705 L65.2491118,1800.3494 C65.9703618,1799.10018 67.1387993,1798.20549 68.5391118,1797.83018 C69.9395806,1797.45502 71.3989556,1797.64565 72.6480181,1798.3669 C73.3878618,1798.79408 73.9891118,1799.37112 74.4352056,1800.03768 C75.1386431,1799.21565 76.0747368,1798.62408 77.1466118,1798.3369 C78.5473931,1797.96174 80.0061431,1798.15237 81.2555181,1798.87362 C82.8298931,1799.78252 83.7755181,1801.36799 83.9377056,1803.05283 C85.1183306,1802.89362 86.3087993,1803.12612 87.3527056,1803.72877 C88.6020806,1804.45018 89.4966118,1805.61846 89.8719243,1807.01893 C89.9822368,1807.43033 90.0436431,1807.8469 90.0570806,1808.26158 C91.1259868,1808.1683 92.2322368,1808.38955 93.2295806,1808.96549 C94.0661431,1809.44846 94.7237993,1810.12299 95.1820806,1810.90127 L95.1820806,1810.90127 L102.067862,1814.87674 L105.823331,1817.04502 C106.917237,1817.67627 108.321612,1817.30049 108.953487,1816.20627 C109.584737,1815.11252 109.209112,1813.70893 108.115987,1813.07674 L108.115987,1813.07674 L97.1995806,1806.77424 C96.4522368,1806.34283 96.1961431,1805.38721 96.6277056,1804.63987 C97.0591118,1803.89268 98.0145806,1803.63643 98.7620806,1804.06799 L98.7620806,1804.06799 L109.677393,1810.36987 C109.677862,1810.37002 109.678331,1810.37018 109.678799,1810.37049 L111.883331,1811.6433 C112.977393,1812.27518 114.381612,1811.89877 115.013331,1810.80455 C115.644737,1809.7108 115.268956,1808.3069 114.175362,1807.67487 C114.175206,1807.67471 114.175049,1807.67455 114.174737,1807.6744 L114.174737,1807.6744 L101.741456,1800.49612 C100.994112,1800.06471 100.738018,1799.10908 101.169581,1798.36174 C101.600987,1797.61455 102.556456,1797.3583 103.303956,1797.78987 L103.303956,1797.78987 L115.738487,1804.96877 L115.739971,1804.96957 L115.740831,1804.97018 L119.089893,1806.90377 C120.184268,1807.53533 121.588174,1807.1594 122.220049,1806.06502 C122.851612,1804.9708 122.475518,1803.56658 121.381299,1802.93487 C121.122969,1802.78577 120.576812,1802.46104 119.732766,1801.95461 L119.352764,1801.72643 C118.290635,1801.08819 116.837549,1800.21151 114.978487,1799.08737 C114.240049,1798.6408 114.003487,1797.68033 114.449893,1796.94174 C114.896456,1796.20362 115.856924,1795.96658 116.595518,1796.41315 C120.295206,1798.65033 122.371768,1799.89846 122.943643,1800.22862 C123.553799,1800.5808 124.069424,1801.03471 124.481768,1801.55658 L124.481768,1801.55658 L132.098487,1798.70283 C132.128174,1798.09799 132.143956,1797.48971 132.143956,1796.87768 C132.143956,1790.64362 130.586768,1784.76737 127.844581,1779.61393 C117.763487,1781.59565 116.316143,1781.31877 108.393956,1778.8258 C106.970049,1778.37783 105.356143,1777.87002 103.403487,1777.28908 Z M85.7902056,1806.43533 C84.6967681,1805.80377 83.2937993,1806.17971 82.6612993,1807.2719 L82.6612993,1807.2719 L82.6602056,1807.27408 L78.8817681,1813.81862 C78.2503618,1814.91283 78.6267681,1816.31674 79.7205181,1816.94846 C80.8148931,1817.58033 82.2191118,1817.20393 82.8506743,1816.10987 L82.8506743,1816.10987 L83.6487993,1814.72752 L83.6487993,1814.72752 L83.6489556,1814.72721 L85.8300493,1810.9494 L85.8300493,1810.9494 L85.8305181,1810.94846 L86.6287993,1809.56549 C87.2606743,1808.47127 86.8844243,1807.06705 85.7902056,1806.43533 Z M79.6936431,1801.58033 C79.1669243,1801.27627 78.5498931,1801.19643 77.9559868,1801.35565 C77.3619243,1801.51502 76.8673931,1801.89252 76.5634868,1802.41893 L76.5634868,1802.41893 L74.6333306,1805.76205 C74.6330181,1805.76237 74.6327056,1805.76283 74.6325493,1805.76315 L74.6325493,1805.76315 L72.4461431,1809.55002 L72.4461431,1809.55002 L71.6286431,1810.9658 C70.9970806,1812.05987 71.3731743,1813.46408 72.4672368,1814.09549 C72.9936431,1814.3994 73.6106743,1814.47908 74.2048931,1814.32002 C74.7991118,1814.16065 75.2936431,1813.78315 75.5975493,1813.25674 L75.5975493,1813.25674 L76.1730181,1812.26018 L76.1730181,1812.26018 L76.1755181,1812.25596 L76.1756743,1812.25565 L79.9534868,1805.71252 L79.9534868,1805.71252 L79.9541118,1805.71143 L80.5323931,1804.71002 C80.8362993,1804.18362 80.9159868,1803.56658 80.7567681,1802.97268 C80.5975493,1802.37846 80.2200493,1801.88408 79.6936431,1801.58033 Z M71.0858306,1801.07346 C70.5591118,1800.7694 69.9420806,1800.68971 69.3481743,1800.84893 C68.7539556,1801.00815 68.2594243,1801.38565 67.9555181,1801.91205 L67.9555181,1801.91205 L65.7737993,1805.69096 C65.4700493,1806.21737 65.3902056,1806.8344 65.5495806,1807.42846 C65.7087993,1808.02252 66.0862993,1808.51705 66.6127056,1808.82096 C67.7053618,1809.45143 69.1084868,1809.07658 69.7409868,1807.98533 L69.7409868,1807.98533 L71.9256743,1804.20158 L71.9256743,1804.20158 L72.0022793,1804.05694 C72.5213929,1802.98697 72.1311295,1801.67697 71.0858306,1801.07346 Z M109.772081,1792.54533 C110.634893,1792.54533 111.334581,1793.24502 111.334581,1794.10783 C111.334581,1794.97065 110.634893,1795.67033 109.772081,1795.67033 C108.909268,1795.67033 108.209112,1794.97065 108.209112,1794.10783 C108.209112,1793.24502 108.908174,1792.54533 109.770987,1792.54533 L109.770987,1792.54533 Z M95.2689556,1760.00268 C82.5431743,1760.00268 71.3030181,1766.48268 64.6731743,1776.31596 C73.0498931,1778.46408 74.0158306,1778.15362 80.6062993,1776.02783 C82.0848931,1775.5508 83.9252056,1774.95721 86.1564556,1774.29346 C88.1427056,1773.70268 90.3189556,1773.35143 92.7730181,1774.76815 L92.7730181,1774.76815 L95.2255181,1776.18408 L97.6780181,1774.76815 C100.132081,1773.35127 102.308487,1773.70252 104.294581,1774.29346 C106.270674,1774.88143 107.896924,1775.39315 109.331924,1775.84455 C116.479112,1778.0933 117.533174,1778.42424 126.156924,1776.75924 C119.568487,1766.67846 108.184581,1760.00268 95.2689556,1760.00268 Z" id="join"></path>
        </g>
    </g>
</svg>