<?xml version="1.0" encoding="UTF-8"?>
<svg width="26px" height="25px" viewBox="0 0 26 25" version="1.1" xmlns="http://www.w3.org/2000/svg" xmlns:xlink="http://www.w3.org/1999/xlink">
    <title>star</title>
    <g id="Website" stroke="none" stroke-width="1" fill="none" fill-rule="evenodd">
        <g id="Sponsorship" transform="translate(-111.000000, -990.000000)" fill="#AAAAAA" fill-rule="nonzero">
            <g id="Group-8" transform="translate(62.000000, 956.000000)">
                <path d="M69.6189835,58.1291995 C69.5206102,58.1298044 69.4238046,58.1045508 69.3382628,58.0559681 L62.2348102,54.3333683 L55.1313576,58.0559681 C54.932661,58.1768057 54.6831761,58.1768057 54.4844796,58.0559681 C54.2977685,57.9184351 54.2073937,57.6853634 54.2525799,57.4579111 L55.6073621,49.5489122 L49.8586917,43.910089 C49.6894024,43.7510226 49.6275363,43.5083172 49.7000235,43.2876215 C49.773138,43.064567 49.9677064,42.9032176 50.2004385,42.8726432 L58.1338479,41.6521187 L61.6855742,34.4632293 C61.7990534,34.2672573 62.0083537,34.1465963 62.2348102,34.1465963 C62.4612667,34.1465963 62.670567,34.2672573 62.7840462,34.4632293 L66.3357726,41.6521187 L74.2691819,42.8726432 C74.501914,42.9032176 74.6964824,43.064567 74.7695969,43.2876215 C74.8420841,43.5083172 74.780218,43.7510226 74.6109287,43.910089 L68.8622583,49.5122965 L70.2170405,57.4212953 C70.2622267,57.6487476 70.1718519,57.8818194 69.9851408,58.0193523 C69.8769418,58.0920196 69.7493151,58.1303076 69.6189835,58.1291995 L69.6189835,58.1291995 Z M62.2348102,53.0274071 C62.3331835,53.0268022 62.4299891,53.0520558 62.5155308,53.1006386 L68.8134373,56.40826 L67.5929128,49.4024493 C67.5640635,49.2044171 67.632186,49.0045912 67.7759915,48.8654185 L72.8655787,43.8978838 L65.8963837,42.8726432 C65.6988903,42.8485422 65.5279878,42.7238295 65.4447897,42.5431016 L62.2348102,36.1719636 L59.085857,42.4942806 C59.0026589,42.6750085 58.8317563,42.7997212 58.6342629,42.8238222 L51.5918365,43.8490628 L56.6814237,48.8165975 C56.8252292,48.9557702 56.8933516,49.1555961 56.8645024,49.3536283 L55.6439779,56.359439 L61.9418843,53.0518176 C62.0356258,53.0178115 62.1367331,53.0093859 62.2348102,53.0274071 L62.2348102,53.0274071 Z" id="star"></path>
            </g>
        </g>
    </g>
</svg>