<svg xmlns="http://www.w3.org/2000/svg" width="1197" height="194" viewBox="0 0 1197 194">
  <defs>
    <style>
      .cls-1 {
        fill: #1f2a38;
      }

      .cls-1, .cls-2 {
        fill-rule: evenodd;
      }

      .cls-2 {
        fill: #4e80f9;
      }
    </style>
  </defs>
  <path id="Digital" class="cls-1" d="M1.206,8.039V147.8H52.428q17.34,0,30.893-5.89a68.638,68.638,0,0,0,22.821-15.674,66.643,66.643,0,0,0,14.051-22.362,72.431,72.431,0,0,0,4.783-25.956,71.166,71.166,0,0,0-4.883-25.956A68.02,68.02,0,0,0,105.942,29.6,68.962,68.962,0,0,0,83.221,13.929Q69.768,8.043,52.428,8.039H1.206ZM50.834,35.992a41.684,41.684,0,0,1,17.439,3.494,38.751,38.751,0,0,1,12.955,9.384A41.475,41.475,0,0,1,89.3,62.348a45.136,45.136,0,0,1,0,31.247,41.685,41.685,0,0,1-8.072,13.378,38.657,38.657,0,0,1-12.955,9.384,41.642,41.642,0,0,1-17.439,3.494H33.494V35.992h17.34Zm90.582-8.885A19.782,19.782,0,0,0,151.78,37.49a19.242,19.242,0,0,0,7.674,1.5,19.979,19.979,0,0,0,7.773-1.5,19.267,19.267,0,0,0,6.278-4.193,19.566,19.566,0,0,0,4.185-6.19,18.811,18.811,0,0,0,1.5-7.487,19.556,19.556,0,0,0-1.5-7.587,18.2,18.2,0,0,0-4.185-6.19A20.012,20.012,0,0,0,159.454.252,19.084,19.084,0,0,0,139.921,19.62,18.828,18.828,0,0,0,141.416,27.107Zm2.89,120.7H174.8V51.566H144.306V147.8Zm113.1-70.681a21.91,21.91,0,0,1,7.275,5.391,25.8,25.8,0,0,1,6.378,17.171,26.7,26.7,0,0,1-1.694,9.484,24.131,24.131,0,0,1-4.684,7.787,22.536,22.536,0,0,1-7.275,5.291,22.132,22.132,0,0,1-9.467,2,21.463,21.463,0,0,1-9.367-2,22.4,22.4,0,0,1-11.759-13.078,28.088,28.088,0,0,1-1.595-9.484,27.257,27.257,0,0,1,1.595-9.384,24.13,24.13,0,0,1,4.584-7.787,22.187,22.187,0,0,1,7.175-5.391,21.505,21.505,0,0,1,9.367-2A22.177,22.177,0,0,1,257.411,77.123Zm44.147-25.557H271.064V65.343a27.937,27.937,0,0,0-12.257-11.88,37.373,37.373,0,0,0-17.44-4.293,44.835,44.835,0,0,0-43.349,30.449,59.669,59.669,0,0,0-3.289,20.066,53.369,53.369,0,0,0,3.488,19.667,46.76,46.76,0,0,0,9.666,15.374,42.885,42.885,0,0,0,14.849,10.083,49.224,49.224,0,0,0,19.034,3.594,36.694,36.694,0,0,0,17.34-4.193,29.674,29.674,0,0,0,11.958-10.782V149.6q0,11.38-6.378,16.572t-17.14,5.191q-9.969,0-15.247-4.991a17.525,17.525,0,0,1-5.88-11.181H195.925a37.1,37.1,0,0,0,3.986,15.074,39.752,39.752,0,0,0,9.965,12.479,43.4,43.4,0,0,0,15.048,8.186q9.067,3,22.622,2.995a86.221,86.221,0,0,0,22.721-2.595,46.824,46.824,0,0,0,16.144-7.787,36.137,36.137,0,0,0,11.36-14.476q3.784-8.685,3.787-21.863V51.566Zm22.421-24.459A19.782,19.782,0,0,0,334.343,37.49a19.246,19.246,0,0,0,7.674,1.5,19.979,19.979,0,0,0,7.773-1.5,19.267,19.267,0,0,0,6.278-4.193,19.566,19.566,0,0,0,4.185-6.19,18.811,18.811,0,0,0,1.5-7.487,19.556,19.556,0,0,0-1.5-7.587,18.2,18.2,0,0,0-4.185-6.19A20.012,20.012,0,0,0,342.017.252,19.082,19.082,0,0,0,322.485,19.62,18.828,18.828,0,0,0,323.979,27.107Zm2.89,120.7h30.494V51.566H326.869V147.8Zm116.394-23.361a23.525,23.525,0,0,1-5.182.5H432.3a21.3,21.3,0,0,1-5.182-.6,9.3,9.3,0,0,1-4.185-2.293,11.128,11.128,0,0,1-2.791-4.883,29.606,29.606,0,0,1-1-8.57V74.328h21.924V51.566H419.147V23.014h-30.3V51.566H373.705V74.328h15.147v41.131q0,11.979,3.289,18.868a24.056,24.056,0,0,0,8.371,10.183,26.583,26.583,0,0,0,11.061,4.093,86.356,86.356,0,0,0,11.361.8q6.772,0,11.859-.5t8.47-1.1V124.443Zm52.617-2.2a22.844,22.844,0,0,1-7.175-5.291,24.059,24.059,0,0,1-4.683-7.787,26.613,26.613,0,0,1-1.695-9.484,25.81,25.81,0,0,1,6.378-17.171,22.2,22.2,0,0,1,7.175-5.391,22.973,22.973,0,0,1,18.735,0,22.187,22.187,0,0,1,7.175,5.391,25.8,25.8,0,0,1,6.378,17.171,26.679,26.679,0,0,1-1.694,9.484,24.1,24.1,0,0,1-4.684,7.787,22.832,22.832,0,0,1-7.175,5.291A22.969,22.969,0,0,1,495.88,122.247Zm32.288-70.681V65.343a28.789,28.789,0,0,0-4.783-6.19,31.716,31.716,0,0,0-6.876-5.191,38.587,38.587,0,0,0-8.471-3.494,33.573,33.573,0,0,0-9.168-1.3,45.928,45.928,0,0,0-19.034,3.893,45.111,45.111,0,0,0-14.848,10.582,46.939,46.939,0,0,0-9.567,15.973,58.044,58.044,0,0,0-3.388,20.066,58.039,58.039,0,0,0,3.388,20.066,46.9,46.9,0,0,0,9.567,15.973,45.061,45.061,0,0,0,14.848,10.583A45.937,45.937,0,0,0,498.87,150.2a33.581,33.581,0,0,0,9.168-1.3,41.822,41.822,0,0,0,8.471-3.394,30.89,30.89,0,0,0,6.876-4.992,24.968,24.968,0,0,0,4.783-6.289V147.8h30.494V51.566H528.168Zm56.4,96.238h30.5V8.039h-30.5V147.8Z"/>
  <path id="sset" class="cls-1" d="M858.776,87.71a63.982,63.982,0,0,1-7.673-2.8,14.582,14.582,0,0,1-4.684-3.095,6.007,6.007,0,0,1-1.594-4.293,7.09,7.09,0,0,1,3.388-6.489,14.836,14.836,0,0,1,7.972-2.1q6.377,0,9.467,3.294t3.09,9.284h30.1a31.885,31.885,0,0,0-2.591-12.778,28.609,28.609,0,0,0-7.673-10.383,36.421,36.421,0,0,0-12.955-6.888,60.484,60.484,0,0,0-18.237-2.5q-19.536,0-30.992,7.188T814.928,78.326a24.933,24.933,0,0,0,2.392,11.581,21.665,21.665,0,0,0,6.478,7.587,41.2,41.2,0,0,0,9.467,5.092q5.38,2.1,11.36,3.893,6.774,2.2,11.66,3.694a57.189,57.189,0,0,1,7.972,3,14.519,14.519,0,0,1,4.584,3.194,6.552,6.552,0,0,1,1.5,4.493q0,4.793-3.488,6.888a17.429,17.429,0,0,1-9.068,2.1q-6.779,0-11.062-3.3t-4.285-10.881h-29.9q0,16.771,11.858,25.756t32.388,8.985a84.725,84.725,0,0,0,16.842-1.6,41.97,41.97,0,0,0,13.851-5.291,26.924,26.924,0,0,0,9.368-9.584q3.387-5.887,3.388-14.476a24.115,24.115,0,0,0-2.491-11.58,23.259,23.259,0,0,0-6.677-7.687A40.019,40.019,0,0,0,881.3,95q-5.583-2.1-11.959-3.894Q863.36,89.111,858.776,87.71Zm101.646,0a63.982,63.982,0,0,1-7.673-2.8,14.582,14.582,0,0,1-4.684-3.095,6.007,6.007,0,0,1-1.594-4.293,7.09,7.09,0,0,1,3.388-6.489,14.836,14.836,0,0,1,7.972-2.1q6.376,0,9.467,3.294t3.089,9.284h30.093a31.883,31.883,0,0,0-2.588-12.778,28.609,28.609,0,0,0-7.673-10.383,36.421,36.421,0,0,0-12.955-6.888,60.484,60.484,0,0,0-18.237-2.5q-19.536,0-30.992,7.188T916.574,78.326a24.933,24.933,0,0,0,2.392,11.581,21.655,21.655,0,0,0,6.478,7.587,41.2,41.2,0,0,0,9.467,5.092q5.381,2.1,11.36,3.893,6.774,2.2,11.66,3.694a57.189,57.189,0,0,1,7.972,3,14.519,14.519,0,0,1,4.584,3.194,6.552,6.552,0,0,1,1.5,4.493q0,4.793-3.488,6.888a17.429,17.429,0,0,1-9.068,2.1q-6.779,0-11.062-3.3t-4.285-10.881h-29.9q0,16.771,11.858,25.756t32.388,8.985a84.725,84.725,0,0,0,16.842-1.6,41.97,41.97,0,0,0,13.851-5.291,26.924,26.924,0,0,0,9.368-9.584q3.39-5.887,3.39-14.476a24.08,24.08,0,0,0-2.493-11.58,23.259,23.259,0,0,0-6.677-7.687A40.019,40.019,0,0,0,982.944,95q-5.583-2.1-11.959-3.894Q965.006,89.111,960.422,87.71Zm155.058,19.367a53.575,53.575,0,0,0,.9-7.787c0.06-2.262.1-4.393,0.1-6.389a41.715,41.715,0,0,0-13.45-30.748,49.555,49.555,0,0,0-15.55-9.584,55.09,55.09,0,0,0-20.43-3.594,56.32,56.32,0,0,0-22.02,3.993,46.18,46.18,0,0,0-15.95,10.882,45.577,45.577,0,0,0-9.76,16.073,58.036,58.036,0,0,0-3.29,19.767,59.264,59.264,0,0,0,3.39,20.465,44.835,44.835,0,0,0,9.96,16.073,44.2,44.2,0,0,0,16.25,10.482,68.446,68.446,0,0,0,40.85,1.1,48.084,48.084,0,0,0,14.35-7.089,37.3,37.3,0,0,0,9.77-10.482,33.3,33.3,0,0,0,4.68-12.778h-29.89a16.785,16.785,0,0,1-5.68,7.787q-4.1,3.2-12.06,3.194a25.538,25.538,0,0,1-9.97-1.7,17.233,17.233,0,0,1-6.47-4.592,17.407,17.407,0,0,1-3.59-6.789,36.478,36.478,0,0,1-1.3-8.286h69.16ZM1081.1,74.732q5.475,5.391,5.48,14.775h-40.26q0-9.78,5.78-14.975t14.75-5.191Q1075.625,69.341,1081.1,74.732Zm115.1,49.716a23.5,23.5,0,0,1-5.18.5h-5.78a21.27,21.27,0,0,1-5.18-.6,9.334,9.334,0,0,1-4.19-2.293,11.24,11.24,0,0,1-2.79-4.882,29.851,29.851,0,0,1-.99-8.57V74.332h21.92V51.571h-21.92V23.019h-30.3V51.571h-15.14V74.332h15.14v41.131q0,11.981,3.29,18.868a24.02,24.02,0,0,0,8.37,10.183,26.605,26.605,0,0,0,11.06,4.093,86.319,86.319,0,0,0,11.36.8q6.78,0,11.86-.5t8.47-1.1V124.448Z"/>
  <path class="cls-1" d="M729.991,97.924l-15.4,50.028h-30.8l15.4-50.028h30.8Z"/>
  <path id="Rectangle_2_copy_2" data-name="Rectangle 2 copy 2" class="cls-1" d="M727.009,7.986l43.332,140.028H801L757.666,7.986H727.009Z"/>
  <path id="Rectangle_2_copy" data-name="Rectangle 2 copy" class="cls-2" d="M757.706,7.928l-15.8,51.3h-30.8l15.8-51.295Z"/>
</svg>
