<?xml version="1.0" encoding="utf-8"?>
<!-- Generator: Adobe Illustrator 15.1.0, SVG Export Plug-In . SVG Version: 6.00 Build 0)  -->
<!DOCTYPE svg PUBLIC "-//W3C//DTD SVG 1.1//EN" "http://www.w3.org/Graphics/SVG/1.1/DTD/svg11.dtd">
<svg version="1.1" id="Layer_1" xmlns="http://www.w3.org/2000/svg" xmlns:xlink="http://www.w3.org/1999/xlink" x="0px" y="0px"
	 width="191px" height="54px" viewBox="0 0 191 54" enable-background="new 0 0 191 54" xml:space="preserve">
<g>
	<rect x="73.906" y="21.855" fill="#E42527" width="1.161" height="9.679"/>
	<rect x="120.658" y="16.169" fill="#E42527" width="1.16" height="21.05"/>
	<g>
		<path fill="#E42527" d="M84.746,29.736l0.041-0.014c-0.063-0.221-0.098-0.442-0.098-0.664v-7.203h1.162v9.678h-1.162l-5.059-7.77
			l-0.042,0.014c0.065,0.221,0.097,0.442,0.097,0.664v7.092h-1.162v-9.678h1.162L84.746,29.736z"/>
		<path fill="#E42527" d="M90.468,27.662v3.871h-1.16v-9.678h5.115c0.221,0,0.442,0.092,0.664,0.277l0.331,0.275
			c0.222,0.185,0.332,0.416,0.332,0.692v3.317c0,0.277-0.11,0.507-0.332,0.691l-0.331,0.276c-0.222,0.185-0.443,0.276-0.664,0.276
			H90.468z M90.468,22.824v3.871h3.444c0.165,0,0.271-0.008,0.317-0.021c0.046-0.014,0.11-0.053,0.193-0.117
			s0.131-0.117,0.145-0.159c0.015-0.042,0.021-0.132,0.021-0.27v-2.737c0-0.139-0.007-0.229-0.021-0.27
			c-0.014-0.043-0.062-0.096-0.145-0.16c-0.083-0.063-0.147-0.104-0.193-0.117c-0.047-0.014-0.152-0.02-0.317-0.02H90.468z"/>
		<path fill="#E42527" d="M105.055,21.855h1.162v8.434c0,0.277-0.111,0.507-0.332,0.691l-0.332,0.277
			c-0.221,0.184-0.441,0.276-0.664,0.276h-4.699c-0.223,0-0.443-0.093-0.666-0.276l-0.33-0.277
			c-0.223-0.185-0.332-0.414-0.332-0.691v-8.434h1.16V30c0,0.137,0.008,0.227,0.021,0.268c0.014,0.043,0.062,0.096,0.146,0.16
			c0.082,0.064,0.146,0.104,0.193,0.117c0.045,0.014,0.152,0.021,0.316,0.021h3.678c0.166,0,0.271-0.008,0.318-0.021
			s0.111-0.053,0.193-0.117s0.133-0.117,0.145-0.16c0.016-0.041,0.021-0.131,0.021-0.268V21.855z"/>
		<polygon fill="#E42527" points="108.207,21.855 115.508,21.855 115.508,22.824 112.438,22.824 112.438,31.534 111.275,31.534 
			111.275,22.824 108.207,22.824 		"/>
		<path fill="#1D1E1C" d="M128.932,21.855h5.061c0.221,0,0.441,0.093,0.664,0.276l0.332,0.276c0.221,0.184,0.33,0.415,0.33,0.691
			v7.189c0,0.276-0.109,0.508-0.33,0.691l-0.332,0.277c-0.223,0.184-0.443,0.276-0.664,0.276h-5.061
			c-0.221,0-0.441-0.093-0.664-0.276l-0.332-0.277c-0.221-0.184-0.33-0.415-0.33-0.691V23.1c0-0.276,0.109-0.508,0.33-0.691
			l0.332-0.276C128.49,21.948,128.711,21.855,128.932,21.855 M134.158,29.998v-6.607c0-0.139-0.008-0.229-0.021-0.271
			c-0.014-0.04-0.062-0.093-0.145-0.159c-0.084-0.064-0.146-0.104-0.193-0.116c-0.047-0.015-0.152-0.021-0.318-0.021h-4.037
			c-0.166,0-0.271,0.007-0.318,0.021c-0.047,0.013-0.111,0.052-0.193,0.116c-0.082,0.066-0.131,0.119-0.145,0.159
			c-0.014,0.042-0.021,0.132-0.021,0.271v6.607c0,0.139,0.008,0.229,0.021,0.27c0.014,0.043,0.062,0.096,0.145,0.16
			s0.146,0.104,0.193,0.117s0.152,0.021,0.318,0.021h4.037c0.166,0,0.271-0.007,0.318-0.021s0.109-0.053,0.193-0.117
			c0.082-0.064,0.131-0.117,0.145-0.16C134.15,30.227,134.158,30.137,134.158,29.998"/>
		<path fill="#1D1E1C" d="M144.969,21.855h1.162v8.434c0,0.277-0.109,0.507-0.332,0.691l-0.332,0.277
			c-0.221,0.184-0.441,0.276-0.664,0.276h-4.699c-0.223,0-0.443-0.093-0.664-0.276l-0.332-0.277
			c-0.221-0.185-0.332-0.414-0.332-0.691v-8.434h1.16V30c0,0.137,0.008,0.227,0.023,0.268c0.012,0.043,0.061,0.096,0.145,0.16
			c0.082,0.064,0.146,0.104,0.193,0.117c0.045,0.014,0.152,0.021,0.318,0.021h3.678c0.164,0,0.271-0.008,0.316-0.021
			c0.047-0.014,0.111-0.053,0.193-0.117c0.084-0.064,0.133-0.117,0.145-0.16c0.016-0.041,0.021-0.131,0.021-0.268V21.855z"/>
		<polygon fill="#1D1E1C" points="148.121,21.855 155.422,21.855 155.422,22.824 152.352,22.824 152.352,31.534 151.191,31.534 
			151.191,22.824 148.121,22.824 		"/>
		<path fill="#1D1E1C" d="M158.588,27.662v3.871h-1.162v-9.678h5.117c0.221,0,0.441,0.092,0.662,0.277l0.332,0.275
			c0.221,0.185,0.332,0.416,0.332,0.692v3.317c0,0.277-0.111,0.507-0.332,0.691l-0.332,0.276c-0.221,0.185-0.441,0.276-0.662,0.276
			H158.588z M158.588,22.824v3.871h3.441c0.166,0,0.273-0.008,0.318-0.021c0.047-0.014,0.111-0.053,0.195-0.117
			c0.082-0.064,0.131-0.117,0.145-0.159s0.021-0.132,0.021-0.27v-2.737c0-0.139-0.008-0.229-0.021-0.27
			c-0.014-0.043-0.062-0.096-0.145-0.16c-0.084-0.063-0.148-0.104-0.195-0.117c-0.045-0.014-0.152-0.02-0.318-0.02H158.588z"/>
		<path fill="#1D1E1C" d="M173.174,21.855h1.162v8.434c0,0.277-0.111,0.507-0.334,0.691l-0.33,0.277
			c-0.223,0.184-0.443,0.276-0.664,0.276h-4.701c-0.221,0-0.441-0.093-0.664-0.276l-0.33-0.277
			c-0.223-0.185-0.332-0.414-0.332-0.691v-8.434h1.16V30c0,0.137,0.008,0.227,0.021,0.268c0.014,0.043,0.062,0.096,0.145,0.16
			c0.084,0.064,0.146,0.104,0.193,0.117s0.152,0.021,0.318,0.021h3.678c0.166,0,0.271-0.008,0.318-0.021
			c0.045-0.014,0.111-0.053,0.193-0.117c0.084-0.064,0.131-0.117,0.145-0.16c0.014-0.041,0.021-0.131,0.021-0.268V21.855z"/>
		<polygon fill="#1D1E1C" points="176.326,21.855 183.625,21.855 183.625,22.824 180.557,22.824 180.557,31.534 179.395,31.534 
			179.395,22.824 176.326,22.824 		"/>
		<path fill="#E42527" d="M9.816,7.458C9.714,6.581,8.951,5.896,8.047,5.896c-0.976,0-1.774,0.792-1.774,1.767
			c0,0.974,0.787,1.766,1.761,1.766c0.855,0,1.569-0.612,1.73-1.419c12.9,0.112,23.448,7.741,24.283,17.34
			c-0.678-1.318-1.983-3.49-4.109-5.685c-3.07-3.169-8.496-6.946-16.909-6.946c-0.033,0-0.064,0.006-0.094,0.018
			c-0.14-0.835-0.865-1.474-1.74-1.474c-0.974,0-1.766,0.792-1.766,1.766s0.792,1.766,1.766,1.766c0.897,0,1.639-0.672,1.749-1.54
			c0.028,0.01,0.056,0.015,0.085,0.015c8.209,0,13.503,3.677,16.498,6.762c1.924,1.981,3.173,3.979,3.877,5.288
			c-0.919-0.826-2.337-2.003-4.12-3.171c-2.992-1.96-7.658-4.292-12.905-4.299c-0.133-0.845-0.862-1.496-1.744-1.496
			c-0.975,0-1.766,0.792-1.766,1.767c0,0.974,0.791,1.766,1.766,1.766c0.879,0,1.607-0.645,1.742-1.487
			c7.837,0.01,14.478,5.342,16.86,7.516c-2.642-0.947-8.953-3.029-13.679-3.119c-0.072-0.91-0.832-1.627-1.759-1.627
			c-0.975,0-1.767,0.793-1.767,1.766c0,0.974,0.792,1.768,1.767,1.768c0.832,0,1.53-0.631,1.715-1.408
			c4.67,0.08,10.968,2.192,13.567,3.051h-7.143h-1.984c-0.103-0.858-0.849-1.511-1.754-1.511c-0.973,0-1.765,0.817-1.765,1.791
			s0.792,1.739,1.765,1.739c0.855,0,1.572-0.591,1.733-1.447h2.005h7.012c-2.67,1.143-8.84,3.013-13.437,3.091
			c-0.185-0.777-0.883-1.337-1.715-1.337c-0.975,0-1.767,0.802-1.767,1.775c0,0.975,0.792,1.771,1.767,1.771
			c0.927,0,1.687-0.717,1.759-1.624c4.726-0.091,11.037-2.171,13.679-3.119c-2.383,2.175-9.023,7.507-16.86,7.517
			c-0.135-0.842-0.863-1.486-1.742-1.486c-0.975,0-1.766,0.793-1.766,1.766c0,0.975,0.791,1.767,1.766,1.767
			c0.882,0,1.611-0.649,1.744-1.495c5.247-0.006,9.913-2.342,12.905-4.299c1.816-1.189,3.253-2.389,4.169-3.217
			c-0.69,1.303-1.948,3.339-3.91,5.362c-2.997,3.091-8.295,6.778-16.514,6.778c-0.026,0-0.052,0.006-0.079,0.014
			c-0.09-0.889-0.843-1.585-1.755-1.585c-0.974,0-1.766,0.792-1.766,1.767c0,0.973,0.792,1.767,1.766,1.767
			c0.859,0,1.576-0.618,1.732-1.431c0.032,0.012,0.066,0.02,0.102,0.02c8.413,0,13.838-3.777,16.907-6.945
			c2.092-2.158,3.39-4.296,4.077-5.621c-1.054,9.455-11.537,16.915-24.314,17.002c-0.238-0.693-0.896-1.191-1.668-1.191
			c-0.975,0-1.767,0.793-1.767,1.766c0,0.975,0.792,1.766,1.767,1.766s1.767-0.791,1.767-1.766c0-0.008,0.036-0.016,0.036-0.025
			c13.643-0.129,24.599-8.541,24.884-18.906V26.58C34.717,16.113,23.555,7.585,9.816,7.458 M9.23,7.853
			c-0.093,0.58-0.594,1.025-1.199,1.025c-0.671,0-1.217-0.545-1.217-1.215c0-0.671,0.546-1.217,1.217-1.217
			c0.645,0,1.171,0.505,1.211,1.14C9.216,7.627,9.201,7.678,9.201,7.731C9.201,7.774,9.211,7.816,9.23,7.853 M11.195,14.243
			c-0.67,0-1.216-0.545-1.216-1.215c0-0.67,0.546-1.216,1.216-1.216s1.217,0.546,1.217,1.216
			C12.412,13.698,11.865,14.243,11.195,14.243 M14.634,19.334c-0.67,0-1.216-0.546-1.216-1.215c0-0.671,0.546-1.217,1.216-1.217
			c0.671,0,1.217,0.546,1.217,1.217C15.851,18.789,15.305,19.334,14.634,19.334 M18.991,23.174
			c-0.111,0.555-0.604,0.977-1.191,0.977c-0.671,0-1.216-0.547-1.216-1.217s0.545-1.215,1.216-1.215
			c0.663,0,1.204,0.535,1.214,1.195c-0.028,0.044-0.045,0.096-0.045,0.151C18.968,23.104,18.975,23.141,18.991,23.174
			 M22.201,27.864c-0.67,0-1.214-0.546-1.214-1.216s0.544-1.216,1.214-1.216c0.672,0,1.217,0.546,1.217,1.216
			S22.873,27.864,22.201,27.864 M17.799,31.671c-0.671,0-1.216-0.545-1.216-1.216c0-0.67,0.545-1.217,1.216-1.217
			c0.588,0,1.08,0.422,1.191,0.978c-0.016,0.033-0.022,0.069-0.022,0.108c0,0.055,0.017,0.106,0.045,0.15
			C19.003,31.136,18.462,31.671,17.799,31.671 M14.634,36.486c-0.67,0-1.216-0.546-1.216-1.216c0-0.671,0.546-1.216,1.216-1.216
			c0.671,0,1.217,0.545,1.217,1.216C15.851,35.94,15.305,36.486,14.634,36.486 M11.195,41.576c-0.67,0-1.216-0.545-1.216-1.215
			c0-0.671,0.546-1.215,1.216-1.215s1.217,0.544,1.217,1.215C12.412,41.031,11.865,41.576,11.195,41.576 M8.031,46.942
			c-0.671,0-1.217-0.546-1.217-1.216s0.546-1.215,1.217-1.215c0.56,0,1.029,0.381,1.171,0.896c0,0.007-0.001,0.015-0.001,0.022
			c0,0.045,0.012,0.089,0.033,0.127c0.006,0.057,0.012,0.112,0.012,0.17C9.246,46.396,8.701,46.942,8.031,46.942"/>
		<path fill="#1D1E1C" d="M35.575,26.795c0.287,10.365,11.172,18.777,24.813,18.906c0,0.01-0.017,0.018-0.017,0.025
			c0,0.973,0.784,1.766,1.759,1.766c0.973,0,1.763-0.793,1.763-1.766s-0.795-1.766-1.769-1.766c-0.772,0-1.429,0.498-1.668,1.191
			C47.679,45.065,37.194,37.605,36.14,28.15c0.689,1.325,1.985,3.463,4.075,5.621c3.07,3.168,8.497,6.945,16.909,6.945
			c0.035,0,0.07-0.008,0.1-0.02c0.158,0.812,0.876,1.431,1.734,1.431c0.975,0,1.766-0.794,1.766-1.767
			c0-0.975-0.791-1.766-1.766-1.766c-0.912,0-1.666,0.695-1.757,1.584c-0.024-0.009-0.051-0.014-0.077-0.014
			c-8.22,0-13.518-3.686-16.514-6.778c-1.962-2.023-3.218-4.06-3.91-5.362c0.916,0.828,2.354,2.027,4.169,3.217
			c2.993,1.959,7.659,4.293,12.906,4.299c0.131,0.846,0.861,1.495,1.743,1.495c0.974,0,1.767-0.792,1.767-1.767
			c0-0.973-0.793-1.766-1.767-1.766c-0.878,0-1.607,0.645-1.741,1.486c-7.837-0.011-14.479-5.344-16.861-7.518
			c2.642,0.947,8.954,3.027,13.68,3.117c0.071,0.908,0.832,1.623,1.759,1.623c0.973,0,1.766-0.803,1.766-1.776
			s-0.793-1.784-1.766-1.784c-0.833,0-1.531,0.578-1.717,1.354c-4.595-0.078-10.764-1.948-13.436-3.092h7.012h2.006
			c0.16,0.858,0.876,1.44,1.731,1.44c0.974,0,1.767-0.758,1.767-1.731s-0.793-1.782-1.767-1.782c-0.903,0-1.65,0.644-1.753,1.502
			h-1.984h-7.141c2.598-0.858,8.896-2.971,13.564-3.051c0.186,0.777,0.884,1.424,1.717,1.424c0.973,0,1.766-0.801,1.766-1.774
			s-0.793-1.771-1.766-1.771c-0.927,0-1.688,0.716-1.759,1.624c-4.726,0.091-11.038,2.171-13.68,3.119
			c2.382-2.175,9.024-7.506,16.861-7.517c0.134,0.841,0.863,1.486,1.741,1.486c0.974,0,1.767-0.792,1.767-1.766
			c0-0.974-0.793-1.766-1.767-1.766c-0.882,0-1.612,0.65-1.743,1.496c-5.247,0.006-9.913,2.341-12.906,4.299
			c-1.783,1.168-3.202,2.345-4.118,3.171c0.702-1.31,1.952-3.307,3.876-5.288c2.995-3.084,8.289-6.761,16.497-6.761
			c0.03,0,0.059-0.006,0.084-0.015c0.112,0.867,0.854,1.539,1.75,1.539c0.975,0,1.766-0.792,1.766-1.767
			c0-0.974-0.791-1.765-1.766-1.765c-0.875,0-1.6,0.639-1.739,1.474c-0.03-0.011-0.062-0.018-0.095-0.018
			c-8.412,0-13.839,3.777-16.909,6.945c-2.127,2.195-3.43,4.367-4.108,5.686C36.943,15.75,47.49,8.121,60.392,8.009
			c0.162,0.809,0.877,1.419,1.731,1.419c0.975,0,1.768-0.792,1.768-1.765c0-0.974-0.79-1.767-1.763-1.767
			c-0.905,0-1.621,0.685-1.722,1.562C46.666,7.584,35.575,16.113,35.575,26.58V26.795z M60.923,7.853
			c0.019-0.037,0.03-0.078,0.03-0.122c0-0.054-0.016-0.103-0.044-0.146c0.04-0.635,0.569-1.14,1.213-1.14
			c0.671,0,1.217,0.546,1.217,1.217c0,0.669-0.546,1.215-1.217,1.215C61.517,8.878,61.016,8.433,60.923,7.853 M57.743,13.027
			c0-0.67,0.546-1.215,1.216-1.215s1.216,0.545,1.216,1.215c0,0.671-0.546,1.217-1.216,1.217S57.743,13.698,57.743,13.027
			 M54.303,18.119c0-0.671,0.545-1.215,1.216-1.215c0.67,0,1.216,0.544,1.216,1.215c0,0.67-0.546,1.216-1.216,1.216
			C54.848,19.334,54.303,18.789,54.303,18.119 M46.736,26.648c0-0.67,0.545-1.215,1.216-1.215s1.216,0.545,1.216,1.215
			s-0.545,1.216-1.216,1.216S46.736,27.318,46.736,26.648 M54.303,35.271c0-0.671,0.545-1.216,1.216-1.216
			c0.67,0,1.216,0.545,1.216,1.216c0,0.67-0.546,1.214-1.216,1.214C54.848,36.484,54.303,35.94,54.303,35.271 M57.743,40.361
			c0-0.67,0.546-1.217,1.216-1.217s1.216,0.547,1.216,1.217s-0.546,1.215-1.216,1.215S57.743,41.031,57.743,40.361 M60.907,45.727
			c0-0.058,0.005-0.113,0.014-0.17c0.021-0.038,0.033-0.08,0.033-0.127c0-0.008-0.002-0.016-0.002-0.022
			c0.14-0.516,0.612-0.896,1.171-0.896c0.671,0,1.217,0.545,1.217,1.215s-0.546,1.216-1.217,1.216
			C61.453,46.942,60.907,46.396,60.907,45.727 M51.163,23.173c0.015-0.033,0.023-0.069,0.023-0.108c0-0.055-0.019-0.106-0.047-0.15
			c0.012-0.661,0.551-1.195,1.216-1.195c0.67,0,1.215,0.545,1.215,1.215s-0.545,1.216-1.215,1.216
			C51.766,24.149,51.274,23.729,51.163,23.173 M51.139,30.475c0.028-0.044,0.047-0.096,0.047-0.15c0-0.039-0.009-0.075-0.023-0.108
			c0.111-0.556,0.604-0.978,1.192-0.978c0.67,0,1.215,0.547,1.215,1.217s-0.545,1.216-1.215,1.216
			C51.69,31.671,51.151,31.136,51.139,30.475"/>
	</g>
</g>
</svg>
