<?xml version="1.0" encoding="UTF-8"?>
<!-- Generator: Adobe Illustrator 25.2.3, SVG Export Plug-In . SVG Version: 6.00 Build 0)  -->
<svg version="1.1" id="Layer_1" xmlns="http://www.w3.org/2000/svg" xmlns:xlink="http://www.w3.org/1999/xlink" x="0px" y="0px" viewBox="0 0 480.9 126.6" style="enable-background:new 0 0 480.9 126.6;" xml:space="preserve">
<style type="text/css">
	.st0{fill:#211E1F;}
	.st1{fill:#F37D92;}
</style>
<g>
	<g>
		<path class="st0" d="M179.3,15.3h39.2c1,0,1.8,0.8,1.8,1.8v9.1c0,1-0.8,1.8-1.8,1.8h-24.8c-1,0-1.8,0.8-1.8,1.8v10.8    c0,1,0.8,1.8,1.8,1.8h18c1,0,1.8,0.8,1.8,1.8V53c0,1-0.8,1.8-1.8,1.8h-18c-1,0-1.8,0.8-1.8,1.8v20.7c0,1-0.8,1.8-1.8,1.8h-10.8    c-1,0-1.8-0.8-1.8-1.8V17.1C177.5,16.1,178.3,15.3,179.3,15.3z"/>
		<path class="st0" d="M225.4,34.2h9.7c0.9,0,1.7,0.7,1.8,1.7v0c0.1,1.4,1.8,2.2,2.9,1.2c0.6-0.6,1.4-1.1,2.1-1.6    c2-1.4,4.6-2.1,7.8-2.1c1.2,0,2.2,0.1,3.1,0.2c0.3,0,0.6,0.1,0.8,0.2c1,0.2,1.6,1.1,1.4,2.1l-1.6,8.7c-0.2,1-1.1,1.6-2.1,1.4    c-1-0.2-2.1-0.3-3.2-0.3c-3.2,0-5.9,1-7.9,2.9c-2,1.9-3,4.7-3,8.3v20.4c0,1-0.8,1.8-1.8,1.8h-10.2c-1,0-1.8-0.8-1.8-1.8V36    C223.6,35,224.4,34.2,225.4,34.2z"/>
		<path class="st0" d="M302.7,72.7c0.5,0.8,0.3,1.9-0.5,2.5c-0.3,0.2-0.5,0.4-0.9,0.6c-1,0.7-2.3,1.4-4,2.2    c-1.6,0.7-3.6,1.3-5.8,1.9c-2.2,0.5-4.8,0.8-7.6,0.8c-3.8,0-7.3-0.6-10.3-1.8c-3.1-1.2-5.7-2.8-7.8-4.9c-2.1-2.1-3.8-4.6-4.9-7.6    c-1.1-3-1.7-6.2-1.7-9.8c0-3.1,0.5-6.1,1.6-9c1.1-2.9,2.6-5.4,4.5-7.6c2-2.2,4.4-3.9,7.3-5.2c2.9-1.3,6.1-2,9.7-2s6.8,0.6,9.6,1.9    c2.7,1.3,5,3,6.9,5.3c1.9,2.3,3.3,5,4.3,8.1c1,3.2,1.4,6.6,1.4,10.4v2.3h-29.8c-1.2,0-2.1,1.2-1.7,2.4c0.5,1.4,1.4,2.8,2.8,3.9    c2.1,1.8,4.9,2.7,8.6,2.7c3.6,0,6.5-0.5,8.7-1.6c1.4-0.7,2.5-1.2,3.4-1.8c0.8-0.5,1.9-0.2,2.4,0.6L302.7,72.7z M291.6,51.9    c0-1-0.2-1.9-0.6-2.9c-0.4-1-1-1.9-1.7-2.7c-0.8-0.8-1.7-1.5-2.9-2.1c-1.1-0.5-2.5-0.8-4.1-0.8c-1.6,0-3,0.3-4.2,0.8    c-1.2,0.5-2.2,1.2-3,2.1c-0.8,0.8-1.4,1.7-1.8,2.7c-0.4,1-0.6,2-0.6,2.9H291.6z"/>
		<path class="st0" d="M352.5,71.8c0.7,0.7,0.6,1.9-0.1,2.6c-1.6,1.5-3.7,2.8-6,4c-3,1.5-6.6,2.2-10.7,2.2c-3.6,0-6.9-0.6-9.9-1.8    c-3-1.2-5.5-2.8-7.6-5c-2.1-2.1-3.7-4.7-4.9-7.6c-1.2-2.9-1.8-6.1-1.8-9.6c0-3.3,0.6-6.4,1.8-9.3c1.2-2.9,2.9-5.4,5-7.6    c2.1-2.2,4.7-3.9,7.6-5.1c3-1.2,6.2-1.9,9.7-1.9c4.1,0,7.6,0.7,10.6,2c2.4,1.1,4.5,2.4,6.2,4c0.7,0.7,0.8,1.8,0.1,2.6l-5.9,6.3    c-0.7,0.7-1.8,0.8-2.5,0.1c-0.7-0.7-1.6-1.3-2.5-1.8c-1.5-0.9-3.4-1.3-5.8-1.3c-1.7,0-3.1,0.3-4.4,1c-1.3,0.7-2.4,1.5-3.3,2.6    c-0.9,1.1-1.6,2.3-2.1,3.8c-0.5,1.4-0.7,2.9-0.7,4.5c0,1.5,0.2,2.9,0.7,4.3c0.5,1.4,1.2,2.7,2.1,3.8c0.9,1.1,2,2,3.3,2.7    c1.3,0.7,2.8,1.1,4.4,1.1c2.4,0,4.3-0.5,5.9-1.4c1-0.6,1.8-1.2,2.6-1.8c0.7-0.6,1.8-0.6,2.5,0.2L352.5,71.8z"/>
		<path class="st0" d="M362.7,15.3h10.2c1,0,1.8,0.8,1.8,1.8v26.8c0,1.6,2,2.4,3.1,1.3l10-10.4c0.3-0.4,0.8-0.6,1.3-0.6h10.5    c1.6,0,2.4,1.9,1.3,3.1l-12.1,12.4c-0.6,0.6-0.7,1.5-0.2,2.2l15.7,24.3c0.8,1.2-0.1,2.8-1.5,2.8h-11.6c-0.6,0-1.2-0.3-1.5-0.9    l-9.7-16.1c-0.6-1-2-1.2-2.8-0.3l-1.9,1.9c-0.3,0.3-0.5,0.8-0.5,1.3v12.3c0,1-0.8,1.8-1.8,1.8h-10.2c-1,0-1.8-0.8-1.8-1.8V17.1    C360.9,16.1,361.7,15.3,362.7,15.3z"/>
		<path class="st0" d="M414.6,15.3h10.2c1,0,1.8,0.8,1.8,1.8v60.1c0,1-0.8,1.8-1.8,1.8h-10.2c-1,0-1.8-0.8-1.8-1.8V17.1    C412.8,16.1,413.6,15.3,414.6,15.3z"/>
		<path class="st0" d="M479,72.7c0.5,0.8,0.3,1.9-0.5,2.5c-0.3,0.2-0.5,0.4-0.9,0.6c-1,0.7-2.3,1.4-4,2.2c-1.6,0.7-3.6,1.3-5.8,1.9    c-2.2,0.5-4.8,0.8-7.6,0.8c-3.8,0-7.3-0.6-10.3-1.8c-3.1-1.2-5.7-2.8-7.8-4.9c-2.1-2.1-3.8-4.6-4.9-7.6c-1.1-3-1.7-6.2-1.7-9.8    c0-3.1,0.5-6.1,1.6-9c1.1-2.9,2.6-5.4,4.5-7.6c2-2.2,4.4-3.9,7.3-5.2c2.9-1.3,6.1-2,9.7-2s6.8,0.6,9.6,1.9c2.7,1.3,5,3,6.9,5.3    c1.9,2.3,3.3,5,4.3,8.1c1,3.2,1.4,6.6,1.4,10.4v2.3h-29.8c-1.2,0-2.1,1.2-1.7,2.4c0.5,1.4,1.4,2.8,2.8,3.9    c2.1,1.8,4.9,2.7,8.6,2.7c3.6,0,6.5-0.5,8.7-1.6c1.4-0.7,2.5-1.2,3.4-1.8c0.8-0.5,1.9-0.2,2.4,0.6L479,72.7z M467.9,51.9    c0-1-0.2-1.9-0.6-2.9c-0.4-1-1-1.9-1.7-2.7c-0.8-0.8-1.7-1.5-2.9-2.1c-1.1-0.5-2.5-0.8-4.1-0.8c-1.6,0-3,0.3-4.2,0.8    c-1.2,0.5-2.2,1.2-3,2.1c-0.8,0.8-1.4,1.7-1.8,2.7c-0.4,1-0.6,2-0.6,2.9H467.9z"/>
	</g>
</g>
<g>
	<path class="st0" d="M191.7,116.5c-1.4,1.7-3.2,2.6-5.6,2.6c-1.3,0-2.4-0.2-3.4-0.7c-1-0.5-1.7-1.2-2.4-2.2l-0.4,2.6h-2.9V90.6h3.6   v10.9c0.6-0.9,1.4-1.5,2.3-2c0.9-0.5,2-0.7,3.2-0.7c2.4,0,4.3,1,5.6,2.9c1.3,1.9,2,4.5,2,7.6v0.4   C193.8,112.5,193.1,114.8,191.7,116.5z M189,103.8c-0.8-1.4-2.1-2.1-3.8-2.1c-1.1,0-2,0.3-2.8,0.8c-0.8,0.5-1.4,1.3-1.8,2.2v8.5   c0.5,1,1.1,1.7,1.8,2.3s1.7,0.8,2.8,0.8c1.7,0,2.9-0.6,3.7-1.8c0.8-1.2,1.2-2.8,1.2-4.7v-0.4C190.2,107.1,189.8,105.3,189,103.8z"/>
	<path class="st0" d="M204.5,113.9h0.1l4.8-14.7h4l-8.2,22.5c-0.5,1.3-1.2,2.5-2.1,3.4s-2.2,1.5-3.7,1.5c-0.3,0-0.7,0-1.1-0.1   s-0.8-0.1-1-0.2l0.4-2.8c-0.1,0,0.1,0,0.6,0s0.8,0.1,0.9,0.1c0.8,0,1.4-0.3,1.9-1c0.5-0.7,0.9-1.4,1.2-2.2l0.8-2l-7.3-19.1h4   l4.1,12.3L204.5,113.9z"/>
	<path class="st0" d="M229.9,118.7h-3.6V92.5h9.5c2.9,0,5.1,0.6,6.6,1.9s2.3,3.1,2.3,5.6c0,1.3-0.4,2.5-1.1,3.5   c-0.7,1-1.7,1.8-3.1,2.4c1.4,0.5,2.5,1.2,3.1,2.3c0.6,1.1,0.9,2.4,0.9,3.9v2.5c0,0.8,0.1,1.6,0.3,2.2c0.2,0.6,0.5,1.2,0.9,1.6v0.4   h-3.7c-0.5-0.4-0.8-1-0.9-1.8c-0.1-0.8-0.2-1.6-0.2-2.5v-2.4c0-1.4-0.4-2.6-1.2-3.4s-1.9-1.3-3.3-1.3h-6.6V118.7z M235.5,104.5   c2,0,3.5-0.4,4.3-1.1c0.9-0.8,1.3-1.9,1.3-3.5c0-1.5-0.4-2.6-1.3-3.4s-2.2-1.2-4-1.2h-6v9.3H235.5z"/>
	<path class="st0" d="M251.8,116.4c-1.6-1.8-2.4-4.2-2.4-7v-0.8c0-2.8,0.8-5.1,2.5-6.9c1.7-1.8,3.6-2.8,5.9-2.8c2.6,0,4.6,0.8,6,2.4   s2,3.7,2,6.4v2.2h-12.7l-0.1,0.1c0,1.9,0.5,3.4,1.4,4.6c0.9,1.2,2.2,1.8,3.8,1.8c1.2,0,2.3-0.2,3.2-0.5c0.9-0.3,1.7-0.8,2.4-1.4   l1.4,2.3c-0.7,0.7-1.6,1.3-2.8,1.7c-1.1,0.5-2.5,0.7-4.2,0.7C255.5,119.1,253.4,118.2,251.8,116.4z M254.7,103.1   c-0.8,1-1.4,2.3-1.6,3.8l0,0.1h9v-0.5c0-1.4-0.4-2.6-1.1-3.5c-0.7-0.9-1.9-1.4-3.3-1.4C256.5,101.6,255.5,102.1,254.7,103.1z"/>
	<path class="st0" d="M273.1,102.1c0.6-1,1.5-1.8,2.4-2.4s2.1-0.9,3.3-0.9c2.1,0,3.7,0.6,4.9,1.8c1.2,1.2,1.7,3.1,1.7,5.7v12.3H282   v-12.3c0-1.7-0.3-2.9-1-3.7s-1.7-1.1-3.1-1.1c-1,0-1.9,0.2-2.7,0.7c-0.8,0.5-1.4,1.2-1.9,2v14.2h-3.6V99.2h3.2L273.1,102.1z"/>
	<path class="st0" d="M302.4,117.2c-0.1-0.5-0.1-0.9-0.1-1.4c-0.7,0.9-1.5,1.7-2.6,2.4c-1.1,0.6-2.2,0.9-3.4,0.9   c-2,0-3.6-0.5-4.6-1.6c-1.1-1-1.6-2.5-1.6-4.3c0-1.9,0.8-3.3,2.3-4.4s3.6-1.6,6.1-1.6h3.9v-1.9c0-1.1-0.3-2-1-2.7   c-0.7-0.7-1.7-1-3-1c-1.1,0-2.1,0.3-2.8,0.9c-0.7,0.6-1.1,1.3-1.1,2.1h-3.4l0-0.1c-0.1-1.4,0.6-2.7,2-3.9c1.4-1.2,3.2-1.8,5.5-1.8   c2.2,0,4,0.6,5.3,1.7c1.3,1.1,2,2.7,2,4.9v9.4c0,0.7,0,1.4,0.1,2c0.1,0.6,0.2,1.3,0.4,1.9h-3.7   C302.6,118.1,302.5,117.6,302.4,117.2z M300.3,115.1c1-0.7,1.7-1.4,2-2.3v-3.2h-4c-1.4,0-2.6,0.4-3.4,1.1s-1.3,1.6-1.3,2.5   c0,0.9,0.3,1.6,0.8,2.1s1.3,0.8,2.4,0.8C298.1,116.1,299.3,115.8,300.3,115.1z"/>
	<path class="st0" d="M311.3,94.2v-3.6h3.6v3.6H311.3z M311.3,118.7V99.2h3.6v19.5H311.3z"/>
	<path class="st0" d="M330.8,111.6c-0.6-0.5-1.7-0.9-3.4-1.3c-2.4-0.5-4.2-1.2-5.4-2.1c-1.2-0.9-1.8-2.1-1.8-3.6   c0-1.6,0.7-2.9,2-4.1s3.1-1.7,5.3-1.7c2.3,0,4.1,0.6,5.4,1.8c1.3,1.2,2,2.6,1.9,4.3l0,0.1h-3.4c0-0.9-0.4-1.6-1.1-2.3   c-0.7-0.7-1.7-1-2.8-1c-1.3,0-2.2,0.3-2.8,0.8c-0.6,0.6-0.9,1.2-0.9,2c0,0.8,0.3,1.4,0.8,1.8c0.5,0.4,1.6,0.8,3.3,1.2   c2.5,0.5,4.3,1.2,5.5,2.2c1.2,0.9,1.8,2.1,1.8,3.7c0,1.7-0.7,3.1-2.1,4.2s-3.2,1.6-5.5,1.6c-2.5,0-4.5-0.6-5.9-1.9   c-1.4-1.3-2.1-2.7-2-4.4l0-0.1h3.4c0.1,1.3,0.5,2.2,1.4,2.8c0.9,0.6,1.9,0.9,3.1,0.9c1.3,0,2.3-0.3,3-0.8c0.7-0.5,1.1-1.2,1.1-2   C331.7,112.8,331.4,112.1,330.8,111.6z"/>
	<path class="st0" d="M350.1,111.6c-0.6-0.5-1.7-0.9-3.4-1.3c-2.4-0.5-4.2-1.2-5.4-2.1c-1.2-0.9-1.8-2.1-1.8-3.6   c0-1.6,0.7-2.9,2-4.1c1.3-1.1,3.1-1.7,5.3-1.7c2.3,0,4.1,0.6,5.4,1.8c1.3,1.2,2,2.6,1.9,4.3l0,0.1h-3.4c0-0.9-0.4-1.6-1.1-2.3   c-0.7-0.7-1.7-1-2.8-1c-1.3,0-2.2,0.3-2.8,0.8s-0.9,1.2-0.9,2c0,0.8,0.3,1.4,0.8,1.8c0.5,0.4,1.6,0.8,3.3,1.2   c2.5,0.5,4.3,1.2,5.5,2.2c1.2,0.9,1.8,2.1,1.8,3.7c0,1.7-0.7,3.1-2.1,4.2s-3.2,1.6-5.5,1.6c-2.5,0-4.5-0.6-5.9-1.9s-2.1-2.7-2-4.4   l0-0.1h3.4c0.1,1.3,0.5,2.2,1.4,2.8s1.9,0.9,3.1,0.9c1.3,0,2.3-0.3,3-0.8c0.7-0.5,1.1-1.2,1.1-2C351,112.8,350.7,112.1,350.1,111.6   z"/>
	<path class="st0" d="M370.7,117.2c-0.1-0.5-0.1-0.9-0.1-1.4c-0.7,0.9-1.5,1.7-2.6,2.4c-1.1,0.6-2.2,0.9-3.4,0.9   c-2,0-3.6-0.5-4.6-1.6c-1.1-1-1.6-2.5-1.6-4.3c0-1.9,0.8-3.3,2.3-4.4c1.5-1.1,3.6-1.6,6.1-1.6h3.9v-1.9c0-1.1-0.3-2-1-2.7   c-0.7-0.7-1.7-1-3-1c-1.1,0-2.1,0.3-2.8,0.9c-0.7,0.6-1.1,1.3-1.1,2.1h-3.4l0-0.1c-0.1-1.4,0.6-2.7,2-3.9c1.4-1.2,3.2-1.8,5.5-1.8   c2.2,0,4,0.6,5.3,1.7c1.3,1.1,2,2.7,2,4.9v9.4c0,0.7,0,1.4,0.1,2c0.1,0.6,0.2,1.3,0.4,1.9H371C370.9,118.1,370.8,117.6,370.7,117.2   z M368.6,115.1c1-0.7,1.7-1.4,2-2.3v-3.2h-4c-1.4,0-2.6,0.4-3.4,1.1s-1.3,1.6-1.3,2.5c0,0.9,0.3,1.6,0.8,2.1s1.3,0.8,2.4,0.8   C366.4,116.1,367.6,115.8,368.6,115.1z"/>
	<path class="st0" d="M382.8,102.1c0.6-1,1.5-1.8,2.4-2.4s2.1-0.9,3.3-0.9c2.1,0,3.7,0.6,4.9,1.8s1.7,3.1,1.7,5.7v12.3h-3.6v-12.3   c0-1.7-0.3-2.9-1-3.7s-1.7-1.1-3.1-1.1c-1,0-1.9,0.2-2.7,0.7c-0.8,0.5-1.4,1.2-1.9,2v14.2h-3.6V99.2h3.2L382.8,102.1z"/>
	<path class="st0" d="M411.4,115.2c0.9-0.7,1.3-1.6,1.3-2.7h3.2l0,0.1c0.1,1.7-0.7,3.2-2.2,4.5c-1.6,1.3-3.4,2-5.4,2   c-2.8,0-5-0.9-6.5-2.8c-1.5-1.9-2.3-4.2-2.3-7v-0.8c0-2.8,0.8-5.1,2.3-7c1.5-1.9,3.7-2.8,6.5-2.8c2.3,0,4.2,0.7,5.6,2   c1.4,1.3,2.2,3,2.1,5l0,0.1h-3.2c0-1.2-0.4-2.2-1.3-3c-0.8-0.8-1.9-1.3-3.2-1.3c-1.9,0-3.2,0.7-4,2c-0.8,1.3-1.2,3-1.2,4.9v0.8   c0,2,0.4,3.7,1.2,5s2.1,2,4,2C409.5,116.3,410.5,116,411.4,115.2z"/>
	<path class="st0" d="M421.6,116.4c-1.6-1.8-2.4-4.2-2.4-7v-0.8c0-2.8,0.8-5.1,2.5-6.9c1.7-1.8,3.6-2.8,5.9-2.8c2.6,0,4.6,0.8,6,2.4   s2,3.7,2,6.4v2.2h-12.7l-0.1,0.1c0,1.9,0.5,3.4,1.4,4.6s2.2,1.8,3.8,1.8c1.2,0,2.3-0.2,3.2-0.5s1.7-0.8,2.4-1.4l1.4,2.3   c-0.7,0.7-1.6,1.3-2.8,1.7c-1.1,0.5-2.5,0.7-4.2,0.7C425.3,119.1,423.2,118.2,421.6,116.4z M424.5,103.1c-0.8,1-1.4,2.3-1.6,3.8   l0,0.1h9v-0.5c0-1.4-0.4-2.6-1.1-3.5c-0.7-0.9-1.9-1.4-3.3-1.4C426.3,101.6,425.3,102.1,424.5,103.1z"/>
</g>
<path class="st1" d="M124,77.4c-1.2,7.8-3.6,15.4-7.1,22.5c-1.5,3.3-3.7,6.2-6.4,8.6c-2.5,2-5.2,3.7-8.1,5c-5,2.2-10.3,3.7-15.8,4.6  c-3.1,0.5-6.2,0.9-9.4,1.1c-2.4,0.2-4.8,0.3-7.2,0.2c-9.1-0.3-18-2.1-26.5-5.4c-4.2-1.6-8.1-4.1-11.3-7.2c-1.9-2-3.4-4.3-4.5-6.9  c-3-6.1-5.2-12.5-6.4-19.2c-0.6-3.1-1-6.3-1.3-9.4c-0.2-2-0.2-4.1-0.3-6.1c0-2.2-0.1-4.4,0.1-6.6c0.2-5.2,1-10.3,2.4-15.3  c0.1-0.5,0.3-0.6,0.8-0.5c2.7,0.6,5.4,1,8.1,1.1c1.1,0.1,2.2,0.1,3.3,0c1.7-0.3,2.8-1.9,2.5-3.6c0,0,0,0,0,0c-0.2-1.5-0.3-3-0.4-4.5  c0-3.9,0.9-7.7,2.5-11.3c0.5-1.1,1-2.1,1.5-3.2c0.2-0.5,0.6-0.9,1.1-1c5.4-2.2,11-3.9,16.8-4.9c6-1.1,12-1.5,18.1-1.3  c6.5,0.2,12.9,1.3,19.1,3.3c2.7,0.9,5.3,1.9,7.9,3c0.5,0.2,0.9,0.6,1.1,1c1.7,3.1,2.9,6.5,3.6,9.9c0.5,2.6,0.5,5.2,0.2,7.8  c-0.1,0.6-0.1,1.2-0.2,1.8c-0.1,1.8,1.2,3.3,3,3.4c0.1,0,0.2,0,0.4,0c3.5,0,7-0.4,10.5-1.2c0.5-0.1,0.7,0,0.8,0.5  c0.6,2.8,1.2,5.6,1.6,8.5c0.4,2.7,0.5,5.4,0.7,8.1c0.1,1.1,0.1,2.1,0.1,2.8C125.2,67.6,124.8,72.5,124,77.4z"/>
<path class="st0" d="M143.5,16.5c-1.8-3.7-4.5-6.9-7.9-9.2c-6.2-4.6-13.7-7.1-21.4-7c-1.6,0-3.2,0.2-4.8,0.5  c-5.8,1.3-10.5,3.6-11.5,9.4c-2-0.3-4-0.7-6-0.9c-3-0.4-6-0.7-9-0.9c-3-0.2-6-0.4-9.1-0.5C69.4,7.8,64.9,8,60.5,8.5  C58.3,8.7,56.1,9,54,9.3c-2.2,0.4-4.3,0.9-6.4,1.3c-0.1-0.2-0.2-0.5-0.3-0.7c-0.6-3.4-2.8-6.2-6-7.5C35.9,0,29.8-0.6,24,0.6  c-2.3,0.4-4.5,1.1-6.6,2C12,4.7,7.2,8.3,3.7,12.9C0,17.5-1,23.8,1.1,29.3c1.7,4.5,4.8,8.4,8.9,10.9c1.8,1.2,3.7,2.2,5.6,3.3h0.1  c-0.9,4-1.5,8.1-1.7,12.2c-0.2,2.4-0.2,6.4-0.2,8.8c0,2.4,0.1,4.7,0.3,7.1c0.4,3.5,0.9,7,1.5,10.5c1.3,7.5,3.7,14.7,7.1,21.4  c1.3,2.8,3,5.4,5.1,7.6c3.6,3.5,7.9,6.3,12.6,8.1c9.6,3.7,19.7,5.7,29.9,6.1c1.7,0.1,3.4,0.1,5-0.1c4.3-0.3,8.7-0.8,13-1.5  c6.1-0.9,12-2.6,17.6-5.1c3.3-1.4,6.3-3.3,9.1-5.5c3-2.6,5.4-5.9,7.1-9.5c3.9-7.9,6.6-16.4,7.9-25.1c0.8-5.4,1.3-10.8,1.3-16.3  c0-0.7,0-1.9-0.1-3.1c-0.2-3-0.3-6-0.7-9c-0.3-2-0.7-4-1.1-5.9c0-0.4,0.2-0.6,0.8-0.8c0.2-0.1,0.3-0.1,0.5-0.2  c4.7-2,8.6-5.3,11.5-9.5C145.6,28.7,146.2,22.1,143.5,16.5z M11.7,33.6C9.6,32,8,29.8,7.1,27.3c-1.4-3.7-0.7-7.8,1.8-10.8  c2.9-3.7,6.7-6.4,11-8c3-1.2,6.1-1.9,9.3-2.1c3.2-0.2,6.3,0.4,9.2,1.6c0.4,0.2,0.8,0.4,1.2,0.7c1.2,0.8,1.7,2.3,1.3,3.6  c-0.6,2-1.5,3.9-2.6,5.7c-2,3.5-3.5,7.2-4.4,11.1c-0.7,2.8-0.9,5.7-0.6,8.6c0.1,0.9,0.1,1.8,0.2,2.8c-1.9-0.1-3.7-0.2-5.4-0.4  C22.1,39.7,16.4,37.4,11.7,33.6z M124,77.4c-1.2,7.8-3.6,15.4-7.1,22.5c-1.5,3.3-3.7,6.2-6.4,8.6c-2.5,2-5.2,3.7-8.1,5  c-5,2.2-10.3,3.7-15.8,4.6c-3.1,0.5-6.2,0.9-9.4,1.1c-2.4,0.2-4.8,0.3-7.2,0.2c-9.1-0.3-18-2.1-26.5-5.4c-4.2-1.6-8.1-4.1-11.3-7.2  c-1.9-2-3.4-4.3-4.5-6.9c-3-6.1-5.2-12.5-6.4-19.2c-0.6-3.1-1-6.3-1.3-9.4c-0.2-2-0.2-4.1-0.3-6.1c0-2.2-0.1-4.4,0.1-6.6  c0.2-5.2,1-10.3,2.4-15.3c0.1-0.5,0.3-0.6,0.8-0.5c2.7,0.6,5.4,1,8.1,1.1c1.1,0.1,2.2,0.1,3.3,0c1.7-0.3,2.8-1.9,2.5-3.6  c0,0,0,0,0,0c-0.2-1.5-0.3-3-0.4-4.5c0-3.9,0.9-7.7,2.5-11.3c0.5-1.1,1-2.1,1.5-3.2c0.2-0.5,0.6-0.9,1.1-1c5.4-2.2,11-3.9,16.8-4.9  c6-1.1,12-1.5,18.1-1.3c6.5,0.2,12.9,1.3,19.1,3.3c2.7,0.9,5.3,1.9,7.9,3c0.5,0.2,0.9,0.6,1.1,1c1.7,3.1,2.9,6.5,3.6,9.9  c0.5,2.6,0.5,5.2,0.2,7.8c-0.1,0.6-0.1,1.2-0.2,1.8c-0.1,1.8,1.2,3.3,3,3.4c0.1,0,0.2,0,0.4,0c3.5,0,7-0.4,10.5-1.2  c0.5-0.1,0.7,0,0.8,0.5c0.6,2.8,1.2,5.6,1.6,8.5c0.4,2.7,0.5,5.4,0.7,8.1c0.1,1.1,0.1,2.1,0.1,2.8C125.2,67.6,124.8,72.5,124,77.4  L124,77.4z M117.8,40.3c-2.1,0.2-4.1,0.4-6.2,0.5c0.1-1.7,0.2-3.3,0.3-4.9c0.1-4.4-0.8-8.8-2.7-12.8c-1.2-2.7-2.6-5.4-3.9-8.1  c-0.4-0.8-0.7-1.7-0.9-2.6c-0.4-1.4,0.2-3,1.5-3.7c1.6-0.9,3.3-1.5,5.2-1.8c1.4-0.3,2.7-0.4,4.1-0.4c7.7,0.1,15,3.4,20.2,9.1  c1.6,1.6,2.7,3.7,3.2,5.9C141.1,33,126.5,39.3,117.8,40.3z"/>
<path class="st0" d="M72.5,73.4c3.3,0,6.5,0.3,9.7,1c2,0.4,3.9,1.4,5.4,2.9c1.4,1.3,2.2,3.1,2.3,5c0.2,2.1,0.2,4.3,0,6.4  c-0.3,3-1.9,5.7-4.2,7.6c-2.9,2.5-6.6,4-10.4,4.4c-4.4,0.6-8.9-0.1-12.8-2.2c-3.1-1.5-5.6-4-6.9-7.2c-0.5-1.1-0.7-2.3-0.8-3.5  c-0.1-2.1,0-4.1,0.3-6.2c0.4-2.8,2.3-5.2,4.9-6.3c2-0.9,4.1-1.4,6.2-1.6C68.3,73.6,70.4,73.5,72.5,73.4z M71.9,76.6  c-1.3,0.1-3.2,0.1-5.1,0.3c-2,0.1-3.9,0.6-5.7,1.4c-1.4,0.6-2.5,1.9-2.9,3.4c-0.5,2.2-0.5,4.4-0.2,6.6c0.4,2.5,1.8,4.7,4,6.1  c2.6,1.9,5.6,3,8.8,3.1c4,0.4,7.9-0.5,11.3-2.6c2.4-1.3,4.1-3.7,4.6-6.4c0.2-2,0.2-4,0-6c-0.2-2-1.5-3.7-3.4-4.4  c-0.5-0.2-1-0.4-1.5-0.5C78.6,76.9,75.3,76.5,71.9,76.6z"/>
<path class="st0" d="M113.4,73.5c0.1,1.7-0.4,3.3-1.4,4.7c-1,1.6-3.2,2.1-4.8,1c-0.4-0.2-0.7-0.5-0.9-0.9c-2.2-2.9-2-7,0.4-9.8  c1.3-1.4,3.4-1.4,4.8-0.1c0.1,0.1,0.2,0.2,0.3,0.4C112.9,70.1,113.4,71.8,113.4,73.5z"/>
<path class="st0" d="M43.3,73.4c0.1,1.8-0.6,3.6-1.8,5c-1.2,1.4-3.3,1.5-4.7,0.3c-0.2-0.1-0.3-0.3-0.4-0.4c-2-2.6-2.2-6.2-0.6-9  c0.8-1.6,2.7-2.4,4.5-1.8c1,0.4,1.7,1.2,2.2,2.1C43.1,70.8,43.4,72.1,43.3,73.4z"/>
<path class="st0" d="M58.7,109.1c-3.9-0.1-7.4-2.4-9-6c-0.5-1-0.3-2.1,0.5-2.8c0.6-0.6,1.6-0.7,2.3,0c0.2,0.2,0.4,0.5,0.4,0.7  c1.1,2.6,3.6,4.2,6.4,4.2c0.4,0,0.8-0.1,1.2-0.1c0.8-0.1,1.6,0.5,1.7,1.3c0,0.1,0,0.3,0,0.4c0,1-0.7,1.9-1.7,2.1  C60,109,59.4,109.1,58.7,109.1z"/>
<path class="st0" d="M66.1,85.6c0,0.8-0.4,1.5-0.9,2.1c-0.6,0.6-1.5,0.6-2.1,0c0,0,0,0,0,0c-1.2-1.4-1.2-3.4-0.1-4.8  c0.6-0.6,1.5-0.7,2.1-0.1c0,0,0.1,0.1,0.1,0.1C65.9,83.7,66.2,84.7,66.1,85.6z"/>
<path class="st0" d="M82.7,85.4c-0.2,0.7-0.4,1.3-0.7,1.9c-0.4,0.8-1.3,1.1-2.1,0.7c-0.3-0.2-0.5-0.4-0.7-0.7  c-0.8-1.3-0.7-2.9,0.1-4.2c0.5-0.7,1.4-0.9,2.2-0.4c0.1,0.1,0.3,0.2,0.4,0.4C82.4,83.8,82.7,84.6,82.7,85.4z"/>
<path class="st1" d="M11.7,33.6C9.6,32,8,29.8,7.1,27.3c-1.4-3.7-0.7-7.8,1.8-10.8c2.9-3.7,6.7-6.4,11-8c3-1.2,6.1-1.9,9.3-2.1  c3.2-0.2,6.3,0.4,9.2,1.6c0.4,0.2,0.8,0.4,1.2,0.7c1.2,0.8,1.7,2.3,1.3,3.6c-0.6,2-1.5,3.9-2.6,5.7c-2,3.5-3.5,7.2-4.4,11.1  c-0.7,2.8-0.9,5.7-0.6,8.6c0.1,0.9,0.1,1.8,0.2,2.8c-1.9-0.1-3.7-0.2-5.4-0.4C22.1,39.7,16.4,37.4,11.7,33.6z"/>
<path class="st1" d="M117.8,40.3c-2.1,0.2-4.1,0.4-6.2,0.5c0.1-1.7,0.2-3.3,0.3-4.9c0.1-4.4-0.8-8.8-2.7-12.8  c-1.2-2.7-2.6-5.4-3.9-8.1c-0.4-0.8-0.7-1.7-0.9-2.6c-0.4-1.4,0.2-3,1.5-3.7c1.6-0.9,3.3-1.5,5.2-1.8c1.4-0.3,2.7-0.4,4.1-0.4  c7.7,0.1,15,3.4,20.2,9.1c1.6,1.6,2.7,3.7,3.2,5.9C141.1,33,126.5,39.3,117.8,40.3z"/>
</svg>