<svg xmlns="http://www.w3.org/2000/svg" viewBox="0 0 218.55 79.2"><defs><style>.cls-1{fill:none;}.cls-2{fill:#151515;}</style></defs><title>HERP-LOGO</title><g id="レイヤー_2" data-name="レイヤー 2"><g id="レイヤー_1-2" data-name="レイヤー 1"><path class="cls-1" d="M143.11,15.45c-1.91-1.69-5.14-2.55-9.58-2.55h-7.75V35h7.75c4.41,0,7.62-.87,9.55-2.58S146,27.82,146,23.91,145,17.16,143.11,15.45Z"/><path class="cls-2" d="M193.21.17H166.92V74.64L154.8,51a28,28,0,0,0-4.27-6.66,7.92,7.92,0,0,0-4-2.15l-1.34-.27,1.35-.17c5-.63,8.91-2.55,11.57-5.71s4-7.5,4-12.87c0-8-2.26-13.91-6.72-17.46-4.2-3.35-11.12-5.13-20.5-5.33L110.23,25V66.56H74.34V44.9H90.26L92.16,43l10.42-10.42,1.84-1.84H74.34V12.65h36.83V0H60.58V30.74H56.73V.17H41.81V30.4H14.92V.17H0V79H14.92V44.9H41.81V79H56.73V44.9h3.85V79.2h65.19V47.87h5.32c3.94,0,7.4,3.06,10.28,9.1.47,1,.84,1.77,1.14,2.33l9.7,19.9h30.91V48.75l1.22,0h10.05c15.14,0,24.17-9.54,24.17-25.53C218.55,7.71,210.26.17,193.21.17Zm-59.68,35h-7.75V13.07h7.75c4.44,0,7.67.86,9.58,2.55S146,20.17,146,24.08s-1,6.76-2.92,8.48S137.94,35.13,133.53,35.13Zm57.44.48h-6.76l-1.1,0V13.07h7.76c8.66,0,13,3.54,13,10.51C203.92,31.68,199.68,35.62,191,35.62Z"/></g></g></svg>